<?xml version="1.0" encoding="utf-8"?>
<!-- Generator: Adobe Illustrator 24.0.1, SVG Export Plug-In . SVG Version: 6.00 Build 0)  -->
<svg version="1.1" id="Camada_1" xmlns="http://www.w3.org/2000/svg" xmlns:xlink="http://www.w3.org/1999/xlink" x="0px" y="0px"
	 viewBox="0 0 255 23" style="enable-background:new 0 0 255 23;" xml:space="preserve">
<style type="text/css">
	.st0{fill:#FFFFFF;}
	.st1{fill-rule:evenodd;clip-rule:evenodd;fill:#FFFFFF;}
</style>
<g>
	<g>
		<g>
			<path class="st0" d="M20.74,7.66c-0.17,0-0.3,0.09-0.41,0.28c-0.12,0.21-0.18,0.5-0.18,0.86c0,0.36,0.06,0.65,0.18,0.86
				c0.11,0.19,0.24,0.28,0.41,0.28c0.17,0,0.3-0.09,0.41-0.28c0.12-0.21,0.19-0.5,0.19-0.85s-0.06-0.65-0.19-0.85
				C21.04,7.75,20.91,7.66,20.74,7.66z"/>
			<path class="st0" d="M23.75,3.09c-1.16-0.67-2.19-1.21-3.1-1.63c-1.83-0.83-3.2-1.14-4.2-0.86c-1.32,0.37-1.99,1.77-1.78,3.07
				c0.27,1.7,1.73,3.4,1.73,5.05c0,1.65-1.46,3.35-1.73,5.05c-0.21,1.3,0.47,2.7,1.78,3.07c1.67,0.47,4.31-0.75,7.3-2.48
				c3.89-2.25,5.77-3.94,5.68-5.64C29.52,7.03,27.65,5.33,23.75,3.09z M19.16,10.36l-0.53,0.07V7.88l-0.72,0.38L17.7,7.83l1.46-0.84
				V10.36z M21.58,9.96c-0.21,0.31-0.5,0.47-0.84,0.47c-0.34,0-0.63-0.16-0.84-0.48c-0.2-0.3-0.3-0.69-0.3-1.17
				c0-0.48,0.1-0.87,0.3-1.17c0.21-0.31,0.5-0.47,0.84-0.47c0.35,0,0.63,0.16,0.84,0.47c0.2,0.3,0.3,0.69,0.3,1.17
				C21.88,9.27,21.78,9.67,21.58,9.96z M23.09,10.36l-0.63,0.1l1.03-2.72h-1.45l0.14-0.53h2.07L23.09,10.36z M27,10.11
				c-0.22,0.22-0.48,0.33-0.79,0.33c-0.2,0-0.39-0.05-0.56-0.13c-0.17-0.09-0.32-0.22-0.45-0.39L25.12,9.8l0.43-0.34l0.09,0.13
				c0.07,0.1,0.16,0.18,0.26,0.24c0.1,0.06,0.21,0.09,0.31,0.09c0.16,0,0.29-0.06,0.4-0.17c0.11-0.12,0.17-0.25,0.17-0.42
				c0-0.16-0.05-0.3-0.16-0.4c-0.11-0.11-0.24-0.16-0.41-0.16c-0.09,0-0.17,0.01-0.25,0.04c-0.08,0.03-0.17,0.07-0.27,0.13
				l-0.22,0.14V7.21h1.72l-0.18,0.53h-1.01v0.52c0.01,0,0.01,0,0.02,0c0.08-0.01,0.15-0.02,0.23-0.02c0.3,0,0.55,0.11,0.76,0.32
				c0.2,0.21,0.31,0.47,0.31,0.77C27.33,9.63,27.22,9.9,27,10.11z"/>
		</g>
		<rect x="23.94" y="9.46" class="st0" width="0.79" height="0.79"/>
		<path class="st0" d="M3.54,21.59c-0.21,0.09-0.42,0.13-0.63,0.13c-0.26,0-0.5-0.07-0.71-0.19c-0.17-0.11-0.32-0.25-0.43-0.43
			l2.89-1.71l-0.07-0.13c-0.16-0.31-0.39-0.55-0.68-0.72c-0.29-0.17-0.62-0.25-1-0.25c-0.6,0-1.1,0.2-1.5,0.59
			c-0.4,0.39-0.61,0.89-0.61,1.48c0,0.59,0.2,1.09,0.6,1.49c0.4,0.4,0.91,0.6,1.51,0.6c0.27,0,0.54-0.05,0.79-0.14
			c0.25-0.09,0.51-0.23,0.76-0.42l0.06-0.05v-0.92l-0.25,0.2C4,21.35,3.75,21.5,3.54,21.59 M2.9,19.01c0.18,0,0.34,0.03,0.48,0.09
			c0.07,0.03,0.14,0.07,0.2,0.12l-2.05,1.22c0-0.02,0-0.04,0-0.06c0-0.39,0.13-0.7,0.4-0.96C2.2,19.14,2.52,19.01,2.9,19.01"/>
		<path class="st0" d="M8.08,18.85c-0.13-0.13-0.28-0.24-0.43-0.32c-0.28-0.15-0.6-0.23-0.94-0.23c-0.59,0-1.1,0.2-1.5,0.6
			c-0.4,0.4-0.61,0.89-0.61,1.48c0,0.59,0.2,1.09,0.61,1.49c0.4,0.4,0.91,0.6,1.5,0.6c0.33,0,0.64-0.08,0.92-0.23
			c0.16-0.09,0.31-0.2,0.45-0.33v0.54l0.71-0.09v-5.53l-0.71,0.09V18.85z M7.68,19.41c0.27,0.27,0.4,0.59,0.4,0.97
			c0,0.38-0.13,0.7-0.4,0.97c-0.27,0.27-0.59,0.4-0.97,0.4c-0.38,0-0.7-0.13-0.97-0.4s-0.4-0.59-0.4-0.97c0-0.38,0.13-0.7,0.4-0.97
			s0.59-0.4,0.97-0.4C7.09,19.01,7.41,19.14,7.68,19.41"/>
		<path class="st0" d="M11.7,20.84c0,0.27-0.09,0.5-0.29,0.69c-0.19,0.19-0.41,0.29-0.67,0.29c-0.28,0-0.48-0.08-0.61-0.26
			c-0.14-0.18-0.21-0.48-0.21-0.87v-2.38L9.2,18.4v2.5c0,0.49,0.13,0.88,0.38,1.15c0.26,0.28,0.62,0.42,1.07,0.42
			c0.27,0,0.52-0.06,0.75-0.19c0.11-0.06,0.21-0.13,0.3-0.22v0.38l0.72-0.09v-4.04L11.7,18.4V20.84z"/>
		<path class="st0" d="M15.81,21.4c-0.17,0.11-0.34,0.2-0.51,0.26c-0.17,0.06-0.34,0.09-0.5,0.09c-0.38,0-0.7-0.13-0.97-0.4
			c-0.27-0.27-0.41-0.59-0.41-0.97c0-0.38,0.13-0.7,0.41-0.97c0.27-0.27,0.59-0.4,0.97-0.4c0.18,0,0.34,0.03,0.5,0.08
			c0.16,0.05,0.32,0.14,0.5,0.25l0.11,0.08l0.47-0.57l-0.13-0.1c-0.22-0.15-0.44-0.27-0.68-0.34c-0.23-0.07-0.49-0.11-0.77-0.11
			c-0.59,0-1.1,0.2-1.5,0.59c-0.4,0.39-0.61,0.89-0.61,1.48c0,0.59,0.2,1.09,0.61,1.49c0.4,0.4,0.91,0.6,1.5,0.6
			c0.25,0,0.51-0.04,0.76-0.13c0.25-0.08,0.49-0.2,0.71-0.35l0.14-0.09l-0.47-0.57L15.81,21.4z"/>
		<path class="st0" d="M18.13,18.28c-0.17,0-0.35,0.02-0.53,0.05c-0.18,0.03-0.37,0.08-0.55,0.15l-0.07,0.02l-0.3,0.88L17,19.25
			c0.23-0.1,0.44-0.17,0.61-0.21c0.17-0.04,0.33-0.06,0.48-0.06c0.23,0,0.39,0.05,0.49,0.14c0.1,0.09,0.15,0.24,0.15,0.45v0.13
			c-0.08-0.05-0.15-0.09-0.24-0.13c-0.19-0.08-0.39-0.12-0.6-0.12c-0.41,0-0.77,0.15-1.07,0.44c-0.29,0.29-0.44,0.65-0.44,1.07
			c0,0.42,0.15,0.78,0.44,1.07c0.29,0.29,0.65,0.44,1.07,0.44c0.22,0,0.42-0.04,0.61-0.13c0.08-0.04,0.16-0.08,0.23-0.13v0.3
			l0.72-0.16v-2.74c0-0.44-0.11-0.78-0.33-1C18.91,18.39,18.57,18.28,18.13,18.28 M18.73,20.95c0,0.24-0.07,0.44-0.21,0.58h0
			c-0.14,0.15-0.33,0.22-0.57,0.22c-0.24,0-0.44-0.07-0.59-0.23c-0.16-0.15-0.23-0.34-0.23-0.57c0-0.23,0.07-0.42,0.23-0.57
			c0.16-0.15,0.35-0.23,0.6-0.23c0.24,0,0.42,0.07,0.56,0.22C18.66,20.52,18.73,20.71,18.73,20.95"/>
		<path class="st0" d="M23.19,18.85c-0.13-0.13-0.28-0.24-0.43-0.32c-0.28-0.15-0.6-0.23-0.94-0.23c-0.59,0-1.1,0.2-1.5,0.6
			c-0.4,0.4-0.61,0.89-0.61,1.48c0,0.59,0.2,1.09,0.61,1.49c0.4,0.4,0.91,0.6,1.5,0.6c0.33,0,0.64-0.08,0.92-0.23
			c0.16-0.09,0.31-0.2,0.45-0.33v0.54l0.71-0.09v-5.53l-0.71,0.09V18.85z M22.79,19.41c0.27,0.27,0.4,0.59,0.4,0.97
			c0,0.38-0.13,0.7-0.4,0.97c-0.27,0.27-0.59,0.4-0.97,0.4s-0.7-0.13-0.97-0.4c-0.27-0.27-0.41-0.59-0.41-0.97
			c0-0.38,0.13-0.7,0.41-0.97c0.27-0.27,0.59-0.4,0.97-0.4S22.52,19.14,22.79,19.41"/>
		<path class="st0" d="M26.27,18.3c-0.6,0-1.1,0.2-1.5,0.6c-0.4,0.39-0.61,0.89-0.61,1.48c0,0.59,0.2,1.09,0.61,1.49
			s0.91,0.6,1.5,0.6c0.59,0,1.1-0.2,1.5-0.6c0.4-0.4,0.6-0.9,0.6-1.49c0-0.59-0.2-1.08-0.6-1.48C27.37,18.5,26.87,18.3,26.27,18.3
			 M27.64,20.38c0,0.38-0.13,0.7-0.4,0.97c-0.27,0.27-0.59,0.4-0.97,0.4c-0.38,0-0.7-0.13-0.97-0.4c-0.27-0.27-0.4-0.59-0.4-0.97
			c0-0.38,0.13-0.7,0.4-0.97c0.27-0.27,0.59-0.4,0.97-0.4c0.38,0,0.7,0.13,0.97,0.4C27.51,19.68,27.64,19.99,27.64,20.38"/>
		<path class="st0" d="M30.56,18.97l0.29-0.71h-0.33c-0.31,0-0.6,0.08-0.84,0.24c-0.11,0.07-0.21,0.17-0.31,0.27v-0.47l-0.72,0.09
			v4.04l0.72-0.09v-1.53c0-0.61,0.09-1.08,0.28-1.38c0.17-0.28,0.44-0.44,0.81-0.48L30.56,18.97z"/>
		<path class="st0" d="M33.2,18.61L33.2,18.61c-0.22-0.22-0.55-0.33-0.99-0.33c-0.17,0-0.35,0.02-0.53,0.05
			c-0.18,0.03-0.37,0.08-0.55,0.15l-0.07,0.02l-0.3,0.88l0.31-0.13c0.23-0.1,0.44-0.17,0.61-0.21c0.17-0.04,0.33-0.06,0.48-0.06
			c0.23,0,0.39,0.05,0.49,0.14c0.1,0.09,0.15,0.24,0.15,0.45v0.13c-0.07-0.05-0.15-0.09-0.24-0.13c-0.19-0.08-0.39-0.12-0.6-0.12
			c-0.41,0-0.77,0.15-1.07,0.44c-0.29,0.29-0.44,0.65-0.44,1.07c0,0.42,0.15,0.78,0.44,1.07c0.29,0.29,0.65,0.44,1.07,0.44
			c0.22,0,0.42-0.04,0.61-0.13c0.08-0.04,0.16-0.08,0.23-0.13v0.3l0.72-0.16v-2.74C33.52,19.16,33.41,18.83,33.2,18.61 M32.8,20.95
			c0,0.24-0.07,0.44-0.21,0.58c-0.14,0.15-0.33,0.22-0.57,0.22c-0.24,0-0.44-0.07-0.59-0.23c-0.16-0.15-0.23-0.34-0.23-0.57
			c0-0.23,0.07-0.42,0.23-0.57c0.16-0.15,0.35-0.23,0.6-0.23c0.24,0,0.42,0.07,0.56,0.22C32.73,20.52,32.8,20.71,32.8,20.95"/>
		<path class="st0" d="M37.43,16.64c-0.5,0-0.88,0.13-1.12,0.4c-0.24,0.26-0.36,0.67-0.36,1.21c0,0.01,0,0.02,0,0.03h-0.38
			l-0.21,0.72h0.61v3.47l0.74-0.09v-3.38h1v-0.72h-1.01v-0.05c0-0.34,0.06-0.58,0.19-0.71c0.12-0.13,0.35-0.2,0.66-0.2
			c0.01,0,0.03,0,0.06,0c0.04,0,0.07,0,0.09,0h0.21l-0.22-0.7H37.43z"/>
		<path class="st0" d="M42.93,18.63c-0.24-0.29-0.58-0.44-1-0.44c-0.27,0-0.52,0.08-0.75,0.23c-0.15,0.1-0.28,0.24-0.4,0.39
			c-0.1-0.16-0.22-0.29-0.36-0.39c-0.22-0.15-0.47-0.23-0.76-0.23c-0.26,0-0.5,0.07-0.71,0.21c-0.08,0.05-0.16,0.11-0.23,0.18v-0.36
			l-0.73,0.09v4.18l0.73-0.09v-2.52c0-0.3,0.08-0.54,0.25-0.73c0.16-0.19,0.36-0.28,0.61-0.28c0.23,0,0.4,0.08,0.51,0.26
			c0.12,0.19,0.18,0.5,0.18,0.91v2.45L41,22.39v-2.52c0-0.3,0.08-0.54,0.25-0.74c0.16-0.18,0.36-0.27,0.61-0.27
			c0.23,0,0.39,0.08,0.51,0.26c0.13,0.19,0.19,0.5,0.19,0.9v2.46l0.73-0.09v-2.58C43.28,19.31,43.16,18.91,42.93,18.63"/>
		<rect x="34.14" y="21.23" class="st0" width="1.17" height="1.17"/>
		<path class="st1" d="M20.65,15.99c0.91-0.42,1.94-0.96,3.1-1.63c1.39-0.8,2.53-1.54,3.41-2.22c-6.41,2.59-8.88-5.26-12.49,1.64
			c-0.21,1.3,0.47,2.7,1.78,3.07C17.46,17.13,18.82,16.82,20.65,15.99"/>
		<path class="st1" d="M20.65,1.46c0.91,0.42,1.94,0.96,3.1,1.63c1.39,0.8,2.53,1.54,3.41,2.22c-6.41-2.59-8.88,5.26-12.49-1.64
			c-0.21-1.3,0.47-2.7,1.78-3.07C17.46,0.32,18.82,0.63,20.65,1.46"/>
	</g>
	<g>
		<rect x="71.91" y="0.56" class="st0" width="7.57" height="0"/>
		<polygon class="st0" points="70.66,0.5 70.66,0.5 70.66,0.5 		"/>
		<polygon class="st0" points="64.05,22.45 64.05,22.45 64.05,22.45 		"/>
		<polygon class="st0" points="88.7,22.48 88.7,22.48 88.7,22.48 		"/>
		<path class="st0" d="M70.66,0.5L70.66,0.5l-3.09,0c-1.94,0-3.52,1.58-3.52,3.52v1.49h6.61V0.5z"/>
		<polygon class="st0" points="64.05,22.45 64.05,22.45 70.66,22.45 70.66,9.92 64.05,9.92 		"/>
		<polygon class="st0" points="82.61,0.56 82.61,0.56 72.15,0.56 72.15,0.56 79.47,0.56 		"/>
		<rect x="71.91" y="0.56" class="st0" width="0.25" height="4.95"/>
		<path class="st0" d="M85.61,13.17c0.95-0.88,1.58-1.99,1.91-3.34c0.17-0.71,0.26-1.48,0.26-2.32c0-2.22-0.69-3.94-2.08-5.15
			c-0.63-0.55-1.42-0.98-2.34-1.28c-1.09-0.35-2.39-0.53-3.88-0.53h-7.32v4.95h6.89v0h2.47c1.08,0,1.95,0.87,1.95,1.95V8
			c0,1.06-0.86,1.92-1.92,1.92h-0.28v0h-9.11v4.56h9.87c0.85,0,1.67-0.16,2.42-0.45c0.15-0.09,0.29-0.19,0.47-0.31
			C85.16,13.56,85.39,13.37,85.61,13.17z"/>
		<path class="st0" d="M88.75,7.76V6.7c0-3.39-2.75-6.14-6.14-6.14h-3.14h-7.32v4.95h6.89v0h2.47c1.08,0,1.95,0.87,1.95,1.95V8
			c0,1.06-0.86,1.92-1.92,1.92h-0.28v0h-9.11h-0.25v12.49h2.68c1.78,0,3.23-1.45,3.23-3.23v-4.02h0.13l0.16,0l3.9,7.31h6.7v0
			l-4.97-8.1c0.3-0.12,0.51-0.22,0.72-0.35C86.96,13.06,88.75,10.62,88.75,7.76z"/>
		<path class="st0" d="M70.66,5.51V0.5h-3.09c-1.95,0-3.52,1.58-3.52,3.52v1.49H70.66z"/>
		<g>
			<path class="st0" d="M97.76,0.64h-8.08v21.79h8.09c4.93,0,8.93-4,8.93-8.93V9.58C106.7,4.64,102.7,0.64,97.76,0.64z
				 M101.68,14.19h-9.23V8.2h4.17l0,0h0.95l0,0h4.1v5.59l0,0l0,0V14.19z"/>
			<polygon class="st0" points="97.58,8.2 97.58,8.2 96.63,8.2 96.63,8.2 97.58,8.2 			"/>
			<polygon class="st0" points="97.58,8.2 97.58,8.2 96.63,8.2 96.63,8.2 97.58,8.2 			"/>
			<polygon class="st0" points="101.68,13.79 101.68,13.79 101.68,13.79 			"/>
			<polygon class="st0" points="101.68,13.79 101.68,13.79 101.68,13.79 			"/>
			<polygon class="st0" points="101.68,13.79 101.68,13.79 101.68,13.79 			"/>
			<polygon class="st0" points="101.68,13.79 101.68,13.79 101.68,13.79 			"/>
			<polygon class="st0" points="101.68,13.79 101.68,13.79 101.68,13.79 			"/>
			<polygon class="st0" points="101.68,8.2 97.58,8.2 101.68,13.79 			"/>
			<polygon class="st0" points="92.45,14.11 96.63,8.2 92.45,8.2 92.45,14.19 101.68,14.19 101.68,13.79 100.58,14.19 			"/>
			<path class="st0" d="M101.68,13.79L101.68,13.79l-4.1-5.59h0C98.96,10.08,100.32,11.94,101.68,13.79z"/>
			<path class="st0" d="M101.68,13.79L101.68,13.79l-4.1-5.59h0C98.96,10.08,100.32,11.94,101.68,13.79z"/>
			<path class="st0" d="M93.64,13.79c0.46-0.67,0.92-1.35,1.39-2.02c0.86-1.21,1.72-2.42,2.55-3.57h-0.95l-4.17,5.91l8.12,0.07
				l1.1-0.39v0H93.64z"/>
			<path class="st0" d="M93.64,13.79c0.46-0.67,0.92-1.35,1.39-2.02c0.86-1.21,1.72-2.42,2.55-3.57h-0.95l-4.17,5.91l8.12,0.07
				l1.1-0.39v0H93.64z"/>
		</g>
		<polygon class="st0" points="98.88,8.19 103.22,14.11 106.69,14.11 106.71,13.7 101.37,8.19 		"/>
		<path class="st0" d="M106.79,6.21h10.01V0.64h-15.13l0.03,0.04C104.06,1.75,105.92,3.75,106.79,6.21z"/>
		<path class="st0" d="M101.79,22.36l-0.12,0.14h15.13v-5.58h-10.03C105.9,19.33,104.09,21.28,101.79,22.36z"/>
		<path class="st0" d="M107.34,13.65c0,0.04,0,0.08,0,0.12h5.26V8.22h-5.34c0.05,0.4,0.08,0.8,0.08,1.22V13.65z"/>
		<path class="st0" d="M104.19,13.76h3.15c0-0.04,0-0.08,0-0.12V9.43c0-0.41-0.03-0.82-0.08-1.22h-7.21L104.19,13.76z"/>
		<g>
			<path class="st0" d="M131,9.95c1.05-0.99,1.7-2.38,1.7-3.94V5.85c0-2.9-2.35-5.25-5.25-5.25l-9.82,0v0v7.16v14.66h8.5h0h2.06
				c3.62,0,6.55-2.93,6.55-6.55C134.75,13.26,133.22,11,131,9.95z M121.34,5.03l0.87-0.49l0,0v0h3.58c0.78,0,1.41,0.63,1.41,1.41
				v0.39c0,0.7-0.51,1.27-1.18,1.37c-0.25,0.31-0.64,0.52-1.07,0.52h-3.6V5.03z M128.3,16.12c0,0.89-0.61,1.63-1.42,1.85
				c-0.35,0.35-0.83,0.57-1.36,0.57h-4.17v-4.42l0.87-0.49v0h0h4.14c1.08,0,1.95,0.87,1.95,1.95V16.12z"/>
			<path class="st0" d="M126.02,7.7c-0.07,0.01-0.13,0.02-0.21,0.02h-3.6V4.54l0,0l-0.87,0.49v3.19h3.6
				C125.38,8.22,125.76,8.02,126.02,7.7z"/>
			<path class="st0" d="M126.02,7.7c-0.07,0.01-0.13,0.02-0.21,0.02h-3.6V4.54l0,0l-0.87,0.49v3.19h3.6
				C125.38,8.22,125.76,8.02,126.02,7.7z"/>
			<path class="st0" d="M122.21,18.04v-4.42l-0.87,0.49v4.42h4.17c0.53,0,1.01-0.22,1.36-0.57c-0.16,0.04-0.32,0.07-0.5,0.07H122.21
				z"/>
			<path class="st0" d="M122.21,18.04v-4.42l-0.87,0.49v4.42h4.17c0.53,0,1.01-0.22,1.36-0.57c-0.16,0.04-0.32,0.07-0.5,0.07H122.21
				z"/>
			<polygon class="st0" points="122.21,13.63 122.21,13.63 122.21,13.63 			"/>
		</g>
	</g>
	<g>
		<g>
			<path class="st0" d="M210.92,5.17l0.26-0.68l1.94-0.01l0.27,0.68h1.05l-1.86-4.57h-0.87l-1.76,4.57H210.92z M212.15,1.79
				l0.66,1.87l-1.31,0L212.15,1.79z"/>
			<path class="st0" d="M156.85,4.97c0.3,0.19,0.7,0.28,1.21,0.28c0.72,0,1.22-0.15,1.51-0.44c0.29-0.3,0.45-0.65,0.48-1.07
				c0.01-0.06,0.01-0.21,0.01-0.43c0-0.22,0-0.37,0-0.45h-1.66v0.73h0.67c-0.02,0.34-0.12,0.57-0.3,0.7
				c-0.18,0.13-0.42,0.19-0.72,0.19c-0.36,0-0.62-0.14-0.8-0.41c-0.17-0.27-0.26-0.68-0.26-1.24c0-0.56,0.09-0.96,0.27-1.2
				c0.18-0.24,0.44-0.36,0.79-0.36c0.28,0,0.51,0.07,0.67,0.21c0.16,0.14,0.28,0.36,0.34,0.67h0.99c-0.04-0.33-0.13-0.62-0.26-0.86
				c-0.13-0.24-0.34-0.43-0.62-0.58c-0.28-0.14-0.65-0.22-1.11-0.22c-0.57,0-1,0.12-1.3,0.35c-0.3,0.23-0.5,0.52-0.59,0.85
				c-0.1,0.34-0.14,0.71-0.14,1.13c0,0.53,0.06,0.98,0.19,1.33C156.34,4.51,156.55,4.78,156.85,4.97z"/>
			<path class="st0" d="M161.42,4.97c0.3,0.19,0.7,0.28,1.21,0.28c0.57,0,1-0.12,1.3-0.35c0.3-0.23,0.5-0.52,0.59-0.85
				c0.1-0.34,0.14-0.71,0.14-1.13c0-0.53-0.06-0.98-0.19-1.33c-0.12-0.35-0.34-0.62-0.63-0.81c-0.3-0.19-0.7-0.28-1.21-0.28
				c-0.57,0-1,0.12-1.3,0.35c-0.3,0.23-0.5,0.52-0.59,0.85c-0.1,0.34-0.14,0.71-0.14,1.13c0,0.53,0.06,0.98,0.19,1.33
				C160.91,4.51,161.12,4.78,161.42,4.97z M161.86,1.67c0.18-0.26,0.44-0.39,0.77-0.39c0.36,0,0.62,0.13,0.79,0.4
				s0.25,0.68,0.25,1.24c0,0.52-0.09,0.9-0.27,1.17c-0.18,0.26-0.44,0.39-0.77,0.39c-0.36,0-0.62-0.13-0.79-0.4
				c-0.17-0.27-0.25-0.68-0.25-1.24C161.59,2.32,161.68,1.93,161.86,1.67z"/>
			<polygon class="st0" points="167.42,5.17 169.18,0.6 168.23,0.6 167,3.98 166.99,3.98 165.76,0.6 164.74,0.6 166.55,5.17 			"/>
			<polygon class="st0" points="172.82,5.17 172.82,4.4 170.56,4.4 170.56,3.26 172.23,3.26 172.31,2.5 170.56,2.5 170.56,1.36 
				172.7,1.36 172.77,0.6 169.58,0.6 169.59,5.17 			"/>
			<path class="st0" d="M174.52,5.17V3.5l0.62,0l0.07,0.18c0.14,0.37,0.25,0.66,0.36,0.86c0.1,0.2,0.25,0.37,0.43,0.51
				c0.18,0.13,0.41,0.2,0.7,0.2c0.14,0,0.29-0.04,0.46-0.11c0.16-0.08,0.3-0.17,0.42-0.28l-0.24-0.48c-0.05,0.03-0.1,0.05-0.17,0.07
				c-0.07,0.02-0.13,0.03-0.18,0.03c-0.14,0-0.26-0.04-0.37-0.12c-0.1-0.08-0.2-0.19-0.28-0.33c-0.08-0.14-0.18-0.34-0.29-0.59
				c0.33-0.09,0.59-0.25,0.77-0.51c0.18-0.25,0.27-0.57,0.27-0.97c0-0.48-0.14-0.82-0.43-1.04c-0.29-0.22-0.7-0.33-1.23-0.33h-1.86
				l0,4.57H174.52z M174.52,1.36h0.57c0.23,0,0.41,0.02,0.56,0.06c0.14,0.04,0.25,0.11,0.33,0.21c0.08,0.1,0.11,0.24,0.11,0.43
				c0,0.18-0.04,0.32-0.11,0.42c-0.08,0.1-0.19,0.17-0.33,0.2c-0.14,0.04-0.33,0.05-0.56,0.05h-0.57V1.36z"/>
			<polygon class="st0" points="178.93,5.17 178.93,2.13 180.79,5.17 181.81,5.17 181.81,0.6 180.83,0.6 180.83,3.6 178.96,0.6 
				177.94,0.6 177.95,5.17 			"/>
			<path class="st0" d="M183.4,4.97c0.3,0.19,0.7,0.28,1.21,0.28c0.57,0,1-0.12,1.3-0.35c0.3-0.23,0.5-0.52,0.59-0.85
				c0.1-0.34,0.14-0.71,0.14-1.13c0-0.53-0.06-0.98-0.19-1.33c-0.12-0.35-0.34-0.62-0.63-0.81c-0.3-0.19-0.7-0.28-1.21-0.28
				c-0.57,0-1,0.12-1.3,0.35c-0.3,0.23-0.5,0.52-0.59,0.85c-0.1,0.34-0.14,0.71-0.14,1.13c0,0.53,0.06,0.98,0.19,1.33
				C182.89,4.51,183.1,4.78,183.4,4.97z M183.85,1.67c0.18-0.26,0.44-0.39,0.77-0.39c0.36,0,0.62,0.13,0.79,0.4s0.25,0.68,0.25,1.24
				c0,0.52-0.09,0.9-0.27,1.17c-0.18,0.26-0.44,0.39-0.77,0.39c-0.36,0-0.62-0.13-0.79-0.4c-0.17-0.27-0.25-0.68-0.25-1.24
				C183.58,2.32,183.67,1.93,183.85,1.67z"/>
			<path class="st0" d="M190.78,5.17c0.34,0,0.66-0.04,0.95-0.13c0.29-0.08,0.52-0.23,0.7-0.43c0.17-0.17,0.28-0.4,0.34-0.68
				c0.06-0.28,0.09-0.59,0.09-0.93c0-0.26-0.01-0.47-0.02-0.63c-0.01-0.16-0.03-0.3-0.06-0.43c-0.09-0.46-0.3-0.79-0.63-1.01
				c-0.33-0.22-0.79-0.33-1.38-0.33h-1.72l0.01,4.57H190.78z M190.04,1.36h0.76c0.28,0,0.52,0.07,0.72,0.22
				c0.2,0.15,0.32,0.38,0.36,0.7c0.02,0.13,0.02,0.31,0.02,0.52v0.17c0,0.19-0.01,0.37-0.03,0.51c-0.02,0.15-0.06,0.27-0.11,0.38
				c-0.17,0.35-0.5,0.53-0.98,0.53h-0.74V1.36z"/>
			<path class="st0" d="M194.25,4.97c0.3,0.19,0.7,0.28,1.21,0.28c0.57,0,1-0.12,1.3-0.35c0.3-0.23,0.5-0.52,0.59-0.85
				c0.1-0.34,0.14-0.71,0.14-1.13c0-0.53-0.06-0.98-0.19-1.33c-0.12-0.35-0.34-0.62-0.63-0.81c-0.3-0.19-0.7-0.28-1.21-0.28
				c-0.57,0-1,0.12-1.3,0.35c-0.3,0.23-0.5,0.52-0.59,0.85c-0.1,0.34-0.14,0.71-0.14,1.13c0,0.53,0.06,0.98,0.19,1.33
				C193.74,4.51,193.95,4.78,194.25,4.97z M194.69,1.67c0.18-0.26,0.44-0.39,0.77-0.39c0.36,0,0.62,0.13,0.79,0.4
				s0.25,0.68,0.25,1.24c0,0.52-0.09,0.9-0.27,1.17c-0.18,0.26-0.44,0.39-0.77,0.39c-0.36,0-0.62-0.13-0.79-0.4
				c-0.17-0.27-0.25-0.68-0.25-1.24C194.42,2.32,194.51,1.93,194.69,1.67z"/>
			<path class="st0" d="M204.09,5.07c0.14,0.05,0.31,0.1,0.5,0.14c0.2,0.04,0.4,0.06,0.62,0.06c0.41,0,0.75-0.06,1.05-0.17
				c0.29-0.11,0.52-0.28,0.67-0.49c0.15-0.21,0.23-0.47,0.23-0.76c0-0.31-0.07-0.55-0.21-0.73c-0.14-0.18-0.3-0.31-0.48-0.39
				c-0.18-0.08-0.41-0.16-0.7-0.25c-0.06-0.02-0.17-0.05-0.33-0.09c-0.23-0.06-0.4-0.1-0.51-0.15c-0.12-0.04-0.21-0.1-0.28-0.17
				c-0.07-0.07-0.11-0.17-0.11-0.29c0-0.15,0.07-0.27,0.21-0.37c0.14-0.09,0.33-0.14,0.59-0.14c0.17,0,0.39,0.03,0.65,0.08
				c0.26,0.06,0.53,0.14,0.82,0.25l0.09-0.75c-0.26-0.11-0.52-0.2-0.8-0.26c-0.27-0.06-0.52-0.09-0.73-0.09
				c-0.37,0-0.68,0.05-0.94,0.15s-0.46,0.23-0.6,0.41c-0.14,0.18-0.23,0.38-0.25,0.62c-0.01,0.09-0.02,0.16-0.02,0.22
				c0,0.4,0.14,0.7,0.41,0.91c0.27,0.21,0.62,0.36,1.04,0.45c0.28,0.06,0.49,0.11,0.64,0.15c0.14,0.04,0.27,0.1,0.37,0.18
				c0.1,0.08,0.15,0.19,0.15,0.33c0,0.15-0.07,0.26-0.22,0.34c-0.15,0.08-0.32,0.13-0.51,0.15c-0.19,0.02-0.37,0.03-0.53,0.03
				c-0.35-0.05-0.8-0.18-1.36-0.42l-0.09,0.77l0.17,0.07C203.8,4.95,203.95,5.01,204.09,5.07z"/>
			<polygon class="st0" points="208.51,5.17 209.48,5.17 209.48,1.36 210.69,1.36 210.75,0.6 207.31,0.6 207.31,1.36 208.51,1.36 
							"/>
			<path class="st0" d="M216.47,5.17c0.34,0,0.66-0.04,0.95-0.13c0.29-0.08,0.52-0.23,0.7-0.43c0.17-0.17,0.28-0.4,0.34-0.68
				c0.06-0.28,0.09-0.59,0.09-0.93c0-0.26-0.01-0.47-0.02-0.63c-0.01-0.16-0.03-0.3-0.06-0.43c-0.09-0.46-0.3-0.79-0.63-1.01
				c-0.33-0.22-0.79-0.33-1.38-0.33h-1.72l0.01,4.57H216.47z M215.73,1.36h0.76c0.28,0,0.52,0.07,0.72,0.22
				c0.2,0.15,0.32,0.38,0.36,0.7c0.02,0.13,0.02,0.31,0.02,0.52v0.17c0,0.19-0.01,0.37-0.03,0.51s-0.06,0.27-0.11,0.38
				c-0.17,0.35-0.5,0.53-0.98,0.53h-0.74V1.36z"/>
			<path class="st0" d="M219.82,4.97c0.3,0.19,0.7,0.28,1.21,0.28c0.57,0,1-0.12,1.3-0.35c0.3-0.23,0.5-0.52,0.59-0.85
				c0.1-0.34,0.14-0.71,0.14-1.13c0-0.53-0.06-0.98-0.19-1.33s-0.34-0.62-0.63-0.81c-0.3-0.19-0.7-0.28-1.21-0.28
				c-0.57,0-1,0.12-1.3,0.35c-0.3,0.23-0.5,0.52-0.59,0.85c-0.1,0.34-0.14,0.71-0.14,1.13c0,0.53,0.06,0.98,0.19,1.33
				C219.31,4.51,219.52,4.78,219.82,4.97z M220.26,1.67c0.18-0.26,0.44-0.39,0.77-0.39c0.36,0,0.62,0.13,0.79,0.4
				c0.17,0.27,0.25,0.68,0.25,1.24c0,0.52-0.09,0.9-0.27,1.17c-0.18,0.26-0.44,0.39-0.77,0.39c-0.36,0-0.62-0.13-0.79-0.4
				C220.08,3.81,220,3.39,220,2.83C220,2.32,220.09,1.93,220.26,1.67z"/>
			<path class="st0" d="M223.07,6.01H156h-0.48V6.5v15.52v0.48H156h67.07h0.48v-0.48V6.5V6.01H223.07z M156,9.96h4.19h2.79
				c1.29,0,1.95,0.49,1.95,1.33v0.04c0,0.91-0.73,1.35-2.04,1.35h-2.71H156V9.96z M160.19,18.56H156V15.7l4.19,0h3.28
				c1.44,0,2.11,0.55,2.11,1.4v0.04c0,0.91-0.75,1.42-2.06,1.42H160.19z M168.04,22.02h-4.03c0.93-0.01,2.13-0.16,2.8-0.39
				c0.63-0.21,1.26-0.55,1.76-0.94L168.04,22.02z M166.8,13.9c1.37-0.6,2.39-1.66,2.39-3.46V10.4c0-1.06-0.38-1.89-1-2.51
				c-0.91-0.91-2.28-1.4-4.24-1.4h10.65l-4.73,11.11C169.85,15.56,168.66,14.51,166.8,13.9z M172.52,22.02l4.12-10.46l4.1,10.46
				H172.52z M184.98,21.11L178.76,6.5h6.22V21.11z M194.8,22.02h-5.52v-5.9h5.52V22.02z M194.8,12.31h-5.52V6.5h5.52V12.31z
				 M201.94,22.02h-2.84V6.5h2.84V22.02z M206,10.33h-3.79V6.5H206V10.33z M206.26,6.5h6.05l-6.05,14.21V6.5z M210.23,22.02
				l4.12-10.46l4.1,10.46H210.23z M223.07,22.02L216.46,6.5h6.61V22.02z"/>
			<polygon class="st0" points="203.15,5.17 203.15,4.4 200.89,4.4 200.89,3.26 202.55,3.26 202.63,2.5 200.89,2.5 200.89,1.36 
				203.02,1.36 203.09,0.6 199.9,0.6 199.91,5.17 			"/>
			<polygon class="st0" points="204.1,7.08 202.5,9.9 205.71,9.9 			"/>
		</g>
		<g>
			<path class="st0" d="M227.18,12.45c0.16,0.04,0.29,0.06,0.4,0.07c0.11,0,0.22-0.01,0.35-0.04c0.12-0.03,0.23-0.07,0.32-0.13
				c0.09-0.06,0.13-0.15,0.13-0.25c0-0.11-0.03-0.19-0.1-0.25c-0.07-0.06-0.15-0.11-0.25-0.14c-0.1-0.03-0.23-0.07-0.4-0.1
				c-0.17-0.03-0.32-0.08-0.45-0.14c-0.13-0.06-0.24-0.14-0.32-0.24c-0.08-0.11-0.13-0.24-0.13-0.41c0-0.02,0-0.04,0-0.08
				c0.01-0.14,0.06-0.27,0.14-0.37c0.08-0.11,0.2-0.19,0.36-0.25c0.15-0.06,0.34-0.09,0.56-0.09c0.11,0,0.24,0.01,0.38,0.04
				c0.14,0.03,0.3,0.08,0.47,0.14l-0.04,0.33c-0.33-0.12-0.61-0.18-0.83-0.18c-0.13,0-0.25,0.02-0.34,0.05
				c-0.09,0.04-0.16,0.08-0.21,0.14c-0.05,0.06-0.07,0.13-0.07,0.21c0,0.09,0.02,0.16,0.07,0.22c0.05,0.05,0.11,0.09,0.19,0.12
				c0.08,0.03,0.19,0.06,0.34,0.1l0.19,0.05l0.08,0.02c0.16,0.04,0.29,0.09,0.39,0.13c0.1,0.05,0.2,0.12,0.27,0.23
				c0.08,0.1,0.12,0.24,0.12,0.42c0,0.16-0.04,0.3-0.13,0.42c-0.09,0.12-0.21,0.22-0.38,0.29c-0.17,0.07-0.37,0.11-0.61,0.11
				c-0.17,0-0.33-0.02-0.49-0.06c-0.16-0.04-0.33-0.1-0.51-0.17l0.04-0.35C226.87,12.37,227.02,12.41,227.18,12.45z"/>
			<path class="st0" d="M231.24,10.43h-1.35v0.85h1.13l-0.04,0.34h-1.09v0.86h1.42v0.34h-1.84v-2.4l-0.03-0.34h1.84L231.24,10.43z"
				/>
			<path class="st0" d="M233.37,10.53c-0.12-0.09-0.27-0.14-0.46-0.14c-0.23,0-0.41,0.08-0.54,0.24c-0.13,0.16-0.2,0.43-0.2,0.81
				c0,0.27,0.03,0.48,0.09,0.65c0.06,0.16,0.14,0.28,0.25,0.35c0.11,0.07,0.24,0.1,0.4,0.1c0.18,0,0.33-0.05,0.45-0.15
				c0.12-0.1,0.21-0.25,0.25-0.46h0.44c-0.03,0.17-0.07,0.32-0.13,0.45c-0.06,0.13-0.17,0.25-0.33,0.35
				c-0.16,0.1-0.38,0.15-0.67,0.15c-0.29,0-0.52-0.05-0.69-0.16s-0.29-0.27-0.37-0.48c-0.07-0.21-0.11-0.48-0.11-0.8
				c0-0.26,0.03-0.49,0.08-0.69c0.06-0.2,0.17-0.37,0.34-0.51c0.17-0.14,0.42-0.2,0.74-0.2c0.38,0,0.65,0.09,0.82,0.26
				c0.17,0.17,0.27,0.41,0.31,0.7h-0.44C233.57,10.78,233.49,10.62,233.37,10.53z"/>
			<path class="st0" d="M234.64,10.43l-0.03-0.34h0.98c0.34,0,0.6,0.06,0.78,0.19c0.18,0.12,0.27,0.34,0.27,0.64
				c0,0.25-0.06,0.44-0.19,0.58c-0.12,0.14-0.3,0.23-0.53,0.26c0.09,0.19,0.17,0.33,0.24,0.44c0.06,0.11,0.13,0.19,0.2,0.25
				c0.07,0.06,0.15,0.09,0.24,0.09c0.03,0,0.07-0.01,0.11-0.02c0.04-0.01,0.08-0.02,0.1-0.04l0.12,0.23
				c-0.07,0.05-0.14,0.09-0.21,0.12c-0.08,0.03-0.15,0.05-0.22,0.05c-0.15,0-0.27-0.03-0.37-0.1c-0.1-0.07-0.18-0.16-0.25-0.27
				c-0.07-0.11-0.15-0.28-0.25-0.5l-0.1-0.22h-0.46v1.05h-0.42V10.43z M235.48,11.44c0.17,0,0.3-0.01,0.41-0.03
				c0.1-0.02,0.19-0.07,0.25-0.14c0.06-0.07,0.09-0.17,0.09-0.31c0-0.14-0.03-0.25-0.09-0.33c-0.06-0.08-0.14-0.13-0.25-0.16
				c-0.11-0.03-0.24-0.04-0.4-0.04h-0.42v1.01H235.48z"/>
			<path class="st0" d="M239.15,10.43h-1.35v0.85h1.13l-0.04,0.34h-1.09v0.86h1.42v0.34h-1.84v-2.4l-0.03-0.34h1.84L239.15,10.43z"
				/>
			<path class="st0" d="M241.53,10.09l-0.03,0.34h-0.81v2.4h-0.42v-2.4h-0.79l-0.03-0.34H241.53z"/>
			<path class="st0" d="M241.23,12.83l1.06-2.74h0.38l0.94,2.42l0.17,0.32h-0.47l-0.18-0.47l-1.18,0l-0.03-0.17l-0.25,0.64H241.23z
				 M242.54,10.87l-0.06-0.26h-0.01l-0.06,0.26l-0.44,1.12l1,0L242.54,10.87z"/>
			<path class="st0" d="M244.23,10.43l-0.03-0.34h0.98c0.34,0,0.6,0.06,0.78,0.19c0.18,0.12,0.27,0.34,0.27,0.64
				c0,0.25-0.06,0.44-0.19,0.58c-0.12,0.14-0.3,0.23-0.53,0.26c0.09,0.19,0.17,0.33,0.24,0.44c0.06,0.11,0.13,0.19,0.2,0.25
				c0.07,0.06,0.15,0.09,0.24,0.09c0.03,0,0.07-0.01,0.11-0.02c0.04-0.01,0.08-0.02,0.1-0.04l0.12,0.23
				c-0.07,0.05-0.14,0.09-0.21,0.12c-0.08,0.03-0.15,0.05-0.22,0.05c-0.15,0-0.27-0.03-0.37-0.1c-0.1-0.07-0.18-0.16-0.25-0.27
				c-0.07-0.11-0.15-0.28-0.25-0.5l-0.1-0.22h-0.46v1.05h-0.42V10.43z M245.07,11.44c0.17,0,0.3-0.01,0.41-0.03
				c0.1-0.02,0.19-0.07,0.25-0.14c0.06-0.07,0.09-0.17,0.09-0.31c0-0.14-0.03-0.25-0.09-0.33c-0.06-0.08-0.14-0.13-0.25-0.16
				c-0.11-0.03-0.24-0.04-0.4-0.04h-0.42v1.01H245.07z"/>
			<path class="st0" d="M247.38,10.09v2.74h-0.42v-2.4l-0.03-0.34H247.38z"/>
			<path class="st0" d="M247.81,12.83l1.06-2.74h0.38l0.94,2.42l0.17,0.32h-0.47l-0.18-0.47l-1.18,0l-0.03-0.17l-0.25,0.64H247.81z
				 M249.12,10.87l-0.06-0.26h-0.01L249,10.87l-0.44,1.12l1,0L249.12,10.87z"/>
			<path class="st0" d="M228.69,15.22c0.2,0.13,0.32,0.33,0.36,0.63c0.01,0.07,0.02,0.16,0.03,0.25c0.01,0.09,0.01,0.21,0.01,0.35
				c0,0.22-0.02,0.4-0.05,0.57c-0.03,0.16-0.09,0.3-0.18,0.4c-0.18,0.24-0.5,0.35-0.97,0.35h-0.94v-2.4l-0.03-0.34h0.97
				C228.22,15.03,228.49,15.1,228.69,15.22z M227.37,17.43h0.52c0.17,0,0.31-0.03,0.42-0.08c0.11-0.05,0.2-0.13,0.25-0.24
				c0.04-0.07,0.07-0.16,0.08-0.26c0.02-0.11,0.03-0.23,0.03-0.38v-0.12c0-0.15-0.01-0.28-0.02-0.37c-0.03-0.23-0.11-0.38-0.26-0.47
				c-0.14-0.09-0.31-0.13-0.5-0.13h-0.53V17.43z"/>
			<path class="st0" d="M229.37,17.77l1.06-2.74h0.38l0.94,2.42l0.17,0.32h-0.47l-0.18-0.47l-1.18,0l-0.03-0.17l-0.25,0.64H229.37z
				 M230.68,15.81l-0.06-0.26h-0.01l-0.06,0.26l-0.44,1.12l1,0L230.68,15.81z"/>
			<path class="st0" d="M235.2,15.37h-1.35v0.85h1.13l-0.04,0.34h-1.09v0.86h1.42v0.34h-1.84v-2.4l-0.03-0.34h1.84L235.2,15.37z"/>
			<path class="st0" d="M237.6,15.22c0.2,0.13,0.32,0.33,0.36,0.63c0.01,0.07,0.02,0.16,0.03,0.25c0.01,0.09,0.01,0.21,0.01,0.35
				c0,0.22-0.02,0.4-0.05,0.57c-0.03,0.16-0.09,0.3-0.18,0.4c-0.18,0.24-0.5,0.35-0.97,0.35h-0.94v-2.4l-0.03-0.34h0.97
				C237.13,15.03,237.4,15.1,237.6,15.22z M236.28,17.43h0.52c0.17,0,0.31-0.03,0.42-0.08c0.11-0.05,0.2-0.13,0.25-0.24
				c0.04-0.07,0.07-0.16,0.08-0.26c0.02-0.11,0.03-0.23,0.03-0.38v-0.12c0-0.15-0.01-0.28-0.02-0.37c-0.03-0.23-0.11-0.38-0.26-0.47
				c-0.14-0.09-0.31-0.13-0.5-0.13h-0.53V17.43z"/>
			<path class="st0" d="M238.95,15.03v1.48c0,0.32,0.06,0.56,0.17,0.72c0.11,0.16,0.29,0.24,0.54,0.24c0.25,0,0.43-0.08,0.54-0.24
				c0.11-0.16,0.17-0.4,0.17-0.73v-1.48h0.43v1.49c0,0.45-0.1,0.78-0.29,0.98c-0.19,0.21-0.47,0.31-0.84,0.31
				c-0.36,0-0.64-0.1-0.84-0.3c-0.19-0.2-0.29-0.53-0.29-1v-1.14l-0.03-0.34H238.95z"/>
			<path class="st0" d="M242.96,15.47c-0.12-0.09-0.27-0.14-0.46-0.14c-0.23,0-0.41,0.08-0.54,0.24c-0.13,0.16-0.2,0.43-0.2,0.81
				c0,0.27,0.03,0.48,0.09,0.65c0.06,0.16,0.14,0.28,0.25,0.35c0.11,0.07,0.24,0.1,0.4,0.1c0.18,0,0.33-0.05,0.45-0.15
				c0.12-0.1,0.21-0.25,0.25-0.46h0.44c-0.03,0.17-0.07,0.32-0.13,0.45c-0.06,0.13-0.17,0.25-0.33,0.35s-0.38,0.15-0.67,0.15
				c-0.29,0-0.52-0.05-0.69-0.16c-0.17-0.11-0.29-0.27-0.37-0.48c-0.07-0.21-0.11-0.48-0.11-0.8c0-0.26,0.03-0.49,0.08-0.69
				c0.06-0.2,0.17-0.37,0.34-0.51c0.17-0.14,0.42-0.2,0.74-0.2c0.38,0,0.65,0.09,0.82,0.26c0.17,0.17,0.27,0.41,0.31,0.7h-0.44
				C243.16,15.72,243.08,15.56,242.96,15.47z"/>
			<path class="st0" d="M243.87,17.77l1.06-2.74h0.38l0.94,2.42l0.17,0.32h-0.47l-0.18-0.47l-1.18,0l-0.03-0.17l-0.25,0.64H243.87z
				 M245.18,15.81l-0.06-0.26h-0.01l-0.06,0.26l-0.44,1.12l1,0L245.18,15.81z"/>
			<path class="st0" d="M248.22,17.33c0.12-0.1,0.21-0.25,0.25-0.46h0.44c-0.03,0.16-0.07,0.3-0.13,0.44
				c-0.06,0.13-0.16,0.25-0.31,0.35c-0.15,0.1-0.36,0.16-0.62,0.17l-0.02,0.17c0.07,0,0.15,0.02,0.21,0.07
				c0.07,0.04,0.1,0.11,0.1,0.21c0,0.09-0.03,0.17-0.09,0.23c-0.06,0.06-0.14,0.1-0.23,0.12c-0.09,0.02-0.18,0.03-0.27,0.03
				l-0.03-0.18c0.09,0,0.17-0.01,0.24-0.04c0.07-0.03,0.1-0.08,0.1-0.15c0-0.09-0.08-0.14-0.24-0.13l0.04-0.32
				c-0.26-0.01-0.46-0.08-0.61-0.19c-0.15-0.11-0.26-0.27-0.33-0.48c-0.07-0.21-0.1-0.46-0.1-0.77c0-0.26,0.03-0.49,0.08-0.69
				c0.06-0.2,0.17-0.37,0.34-0.51c0.17-0.14,0.42-0.2,0.74-0.2c0.38,0,0.65,0.09,0.82,0.26c0.17,0.17,0.27,0.41,0.31,0.7h-0.44
				c-0.05-0.22-0.13-0.37-0.24-0.47c-0.12-0.09-0.27-0.14-0.46-0.14c-0.23,0-0.41,0.08-0.54,0.24c-0.13,0.16-0.2,0.43-0.2,0.81
				c0,0.27,0.03,0.48,0.09,0.65c0.06,0.16,0.14,0.28,0.25,0.35c0.11,0.07,0.24,0.1,0.4,0.1C247.94,17.48,248.09,17.43,248.22,17.33z
				"/>
			<path class="st0" d="M249.13,17.77l1.06-2.74h0.38l0.94,2.42l0.17,0.32h-0.47l-0.18-0.47l-1.18,0l-0.03-0.17l-0.25,0.64H249.13z
				 M249.91,14.72l-0.11-0.14c0.06-0.12,0.12-0.21,0.18-0.25c0.06-0.04,0.14-0.07,0.23-0.07c0.04,0,0.07,0,0.11,0.01
				c0.04,0.01,0.08,0.02,0.13,0.04c0.05,0.02,0.1,0.03,0.13,0.04c0.04,0.01,0.08,0.01,0.11,0.01c0.09,0,0.18-0.05,0.25-0.14
				l0.12,0.13c-0.04,0.08-0.08,0.15-0.12,0.19c-0.04,0.05-0.08,0.08-0.13,0.09c-0.04,0.02-0.1,0.03-0.16,0.03
				c-0.04,0-0.08,0-0.11-0.01c-0.03-0.01-0.08-0.02-0.14-0.04c-0.05-0.02-0.09-0.03-0.13-0.04c-0.04-0.01-0.07-0.01-0.11-0.01
				C250.08,14.57,249.99,14.62,249.91,14.72z M250.44,15.81l-0.06-0.26h-0.01l-0.06,0.26l-0.44,1.12l1,0L250.44,15.81z"/>
			<path class="st0" d="M253.73,15.14c0.17,0.11,0.29,0.27,0.37,0.48c0.07,0.21,0.11,0.48,0.11,0.8c0,0.26-0.03,0.49-0.08,0.69
				c-0.06,0.2-0.17,0.37-0.34,0.51c-0.17,0.14-0.42,0.2-0.74,0.2c-0.29,0-0.52-0.05-0.69-0.16c-0.17-0.11-0.29-0.27-0.37-0.48
				c-0.07-0.21-0.11-0.48-0.11-0.8c0-0.26,0.03-0.49,0.08-0.69c0.06-0.2,0.17-0.37,0.34-0.51c0.17-0.14,0.42-0.2,0.74-0.2
				C253.33,14.98,253.56,15.03,253.73,15.14z M252.38,17.03c0.06,0.16,0.14,0.28,0.25,0.35c0.11,0.07,0.24,0.1,0.41,0.1
				c0.23,0,0.41-0.08,0.54-0.24c0.13-0.16,0.2-0.43,0.2-0.81c0-0.27-0.03-0.48-0.08-0.64c-0.06-0.16-0.14-0.28-0.25-0.35
				c-0.11-0.07-0.24-0.1-0.41-0.1c-0.23,0-0.41,0.08-0.54,0.24c-0.13,0.16-0.2,0.43-0.2,0.81C252.3,16.65,252.33,16.87,252.38,17.03
				z"/>
		</g>
	</g>
</g>
</svg>
