<?xml version="1.0" encoding="utf-8"?>
<!-- Generator: Adobe Illustrator 24.0.1, SVG Export Plug-In . SVG Version: 6.00 Build 0)  -->
<svg version="1.1" id="Layer_1" xmlns="http://www.w3.org/2000/svg" xmlns:xlink="http://www.w3.org/1999/xlink" x="0px" y="0px"
	 viewBox="0 0 161 99" style="enable-background:new 0 0 161 99;" xml:space="preserve">
<style type="text/css">
	.st0{fill:#FFFFFF;}
	.st1{fill:#F6CE18;}
	.st2{fill:#BE1F2E;}
	.st3{fill-rule:evenodd;clip-rule:evenodd;fill:#BE1F2E;}
	.st4{fill-rule:evenodd;clip-rule:evenodd;fill:#AC1F2E;}
</style>
<g>
	<g>
		<path class="st0" d="M10.39,80.2c-0.79,0.34-1.6,0.51-2.4,0.51c-1,0-1.91-0.25-2.71-0.74c-0.65-0.4-1.2-0.94-1.64-1.62l10.95-6.46
			l-0.25-0.49c-0.61-1.18-1.47-2.1-2.56-2.73c-1.08-0.62-2.36-0.94-3.79-0.94c-2.26,0-4.17,0.76-5.69,2.25
			C0.77,71.46,0,73.35,0,75.59c0,2.23,0.77,4.13,2.28,5.64c1.51,1.51,3.43,2.27,5.71,2.27c1.03,0,2.04-0.17,3-0.52
			c0.95-0.34,1.92-0.88,2.89-1.59l0.23-0.17v-3.5l-0.94,0.74C12.14,79.26,11.21,79.85,10.39,80.2z M7.99,70.42
			c0.69,0,1.3,0.11,1.83,0.33c0.29,0.12,0.54,0.26,0.77,0.44L2.82,75.8c0-0.08,0-0.16,0-0.24c0-1.46,0.49-2.65,1.5-3.65
			C5.33,70.9,6.53,70.42,7.99,70.42z"/>
		<path class="st0" d="M27.61,69.8c-0.5-0.49-1.05-0.9-1.64-1.22c-1.06-0.57-2.26-0.86-3.55-0.86c-2.26,0-4.17,0.76-5.69,2.25
			c-1.52,1.5-2.3,3.39-2.3,5.61s0.77,4.12,2.3,5.63c1.53,1.51,3.44,2.28,5.69,2.28c1.24,0,2.41-0.29,3.48-0.86
			c0.62-0.33,1.19-0.75,1.72-1.26v2.05l2.69-0.34V62.11l-2.69,0.34V69.8z M26.08,71.91c1.02,1.02,1.52,2.23,1.52,3.68
			c0,1.45-0.5,2.65-1.52,3.68c-1.02,1.02-2.23,1.52-3.68,1.52c-1.45,0-2.66-0.5-3.69-1.52c-1.03-1.02-1.53-2.23-1.53-3.68
			c0-1.45,0.5-2.65,1.53-3.68c1.03-1.02,2.24-1.52,3.69-1.52C23.86,70.39,25.06,70.89,26.08,71.91z"/>
		<path class="st0" d="M41.34,77.33c0,1.04-0.35,1.89-1.08,2.62c-0.73,0.73-1.56,1.08-2.54,1.08c-1.05,0-1.81-0.32-2.31-0.98
			c-0.53-0.7-0.8-1.8-0.8-3.29v-9.01l-2.74,0.33v9.46c0,1.85,0.49,3.32,1.45,4.37c0.97,1.07,2.34,1.61,4.05,1.61
			c1.04,0,1.99-0.24,2.83-0.71c0.41-0.23,0.79-0.51,1.15-0.85v1.46l2.74-0.33V67.76l-2.74,0.33V77.33z"/>
		<path class="st0" d="M56.91,79.45c-0.63,0.43-1.29,0.77-1.95,1c-0.65,0.22-1.29,0.34-1.9,0.34c-1.45,0-2.66-0.5-3.69-1.53
			c-1.03-1.03-1.53-2.23-1.53-3.67c0-1.44,0.5-2.64,1.53-3.67c1.03-1.03,2.24-1.53,3.69-1.53c0.66,0,1.3,0.1,1.89,0.29
			c0.6,0.2,1.23,0.52,1.88,0.95l0.44,0.29l1.77-2.15l-0.51-0.36c-0.82-0.58-1.69-1.01-2.57-1.29c-0.88-0.27-1.86-0.41-2.9-0.41
			c-2.26,0-4.17,0.76-5.69,2.25c-1.52,1.49-2.3,3.38-2.3,5.62c0,2.22,0.77,4.12,2.3,5.63c1.53,1.51,3.44,2.28,5.69,2.28
			c0.95,0,1.92-0.16,2.87-0.47c0.95-0.31,1.85-0.76,2.68-1.34l0.51-0.36l-1.78-2.17L56.91,79.45z"/>
		<path class="st0" d="M65.71,67.65c-0.64,0-1.32,0.06-2.01,0.19c-0.68,0.12-1.39,0.31-2.1,0.56l-0.27,0.09l-1.12,3.32l1.19-0.51
			c0.87-0.37,1.65-0.64,2.32-0.81c0.65-0.16,1.27-0.24,1.82-0.24c0.86,0,1.49,0.18,1.87,0.53c0.37,0.34,0.55,0.92,0.55,1.72v0.51
			c-0.28-0.19-0.59-0.35-0.9-0.49c-0.72-0.31-1.48-0.46-2.27-0.46c-1.57,0-2.93,0.56-4.04,1.68c-1.11,1.11-1.68,2.47-1.68,4.04
			c0,1.58,0.56,2.94,1.67,4.05c1.11,1.11,2.47,1.67,4.05,1.67c0.82,0,1.59-0.17,2.3-0.49c0.3-0.14,0.6-0.31,0.87-0.51v1.14l2.74-0.6
			V72.67c0-1.68-0.41-2.96-1.23-3.78C68.65,68.07,67.38,67.65,65.71,67.65z M67.96,77.78c0,0.93-0.27,1.65-0.81,2.21h0
			c-0.54,0.56-1.25,0.83-2.17,0.83c-0.92,0-1.65-0.28-2.24-0.87c-0.59-0.58-0.87-1.29-0.87-2.17c0-0.89,0.29-1.6,0.87-2.17
			c0.59-0.58,1.33-0.86,2.27-0.86c0.9,0,1.59,0.27,2.14,0.83C67.69,76.14,67.96,76.86,67.96,77.78z"/>
		<path class="st0" d="M84.87,69.8c-0.5-0.49-1.05-0.9-1.64-1.22c-1.06-0.57-2.26-0.86-3.56-0.86c-2.26,0-4.17,0.76-5.69,2.25
			c-1.52,1.5-2.3,3.39-2.3,5.61s0.77,4.12,2.3,5.63c1.53,1.51,3.44,2.28,5.69,2.28c1.24,0,2.41-0.29,3.48-0.86
			c0.62-0.33,1.19-0.75,1.72-1.26v2.05l2.69-0.34V62.11l-2.69,0.34V69.8z M83.35,71.91c1.02,1.02,1.52,2.23,1.52,3.68
			c0,1.45-0.5,2.65-1.52,3.68c-1.02,1.02-2.23,1.52-3.68,1.52c-1.45,0-2.66-0.5-3.69-1.52c-1.03-1.02-1.53-2.23-1.53-3.68
			c0-1.45,0.5-2.65,1.53-3.68c1.03-1.02,2.24-1.52,3.69-1.52C81.12,70.39,82.33,70.89,83.35,71.91z"/>
		<path class="st0" d="M96.56,67.72c-2.26,0-4.17,0.76-5.69,2.25c-1.52,1.5-2.3,3.39-2.3,5.61c0,2.22,0.77,4.12,2.3,5.63
			c1.53,1.51,3.44,2.28,5.69,2.28c2.25,0,4.16-0.76,5.67-2.27c1.52-1.51,2.29-3.4,2.29-5.64c0-2.22-0.77-4.11-2.29-5.61
			C100.71,68.48,98.8,67.72,96.56,67.72z M101.75,75.59c0,1.45-0.5,2.65-1.52,3.68c-1.02,1.02-2.23,1.52-3.68,1.52
			c-1.45,0-2.66-0.5-3.69-1.52c-1.03-1.02-1.53-2.22-1.53-3.68c0-1.45,0.5-2.65,1.53-3.68c1.03-1.02,2.24-1.52,3.69-1.52
			c1.45,0,2.65,0.5,3.68,1.52C101.26,72.93,101.75,74.14,101.75,75.59z"/>
		<path class="st0" d="M112.8,70.24l1.11-2.67h-1.25c-1.19,0-2.25,0.31-3.17,0.92c-0.42,0.28-0.81,0.63-1.17,1.04v-1.78l-2.72,0.33
			v15.33l2.72-0.33V77.3c0-2.33,0.35-4.08,1.05-5.21c0.66-1.08,1.67-1.67,3.08-1.81L112.8,70.24z"/>
		<path class="st0" d="M122.8,68.89L122.8,68.89c-0.82-0.82-2.08-1.24-3.76-1.24c-0.64,0-1.32,0.06-2.01,0.19
			c-0.68,0.12-1.39,0.31-2.1,0.56l-0.27,0.09l-1.12,3.32l1.19-0.51c0.87-0.37,1.65-0.64,2.32-0.81c0.65-0.16,1.27-0.24,1.82-0.24
			c0.86,0,1.49,0.18,1.87,0.53c0.37,0.35,0.55,0.92,0.55,1.72v0.51c-0.28-0.19-0.59-0.35-0.9-0.49c-0.72-0.31-1.48-0.46-2.27-0.46
			c-1.57,0-2.93,0.56-4.04,1.68c-1.11,1.11-1.68,2.47-1.68,4.04c0,1.58,0.56,2.94,1.67,4.05c1.11,1.11,2.47,1.67,4.05,1.67
			c0.82,0,1.59-0.17,2.3-0.49c0.3-0.14,0.6-0.31,0.87-0.51v1.14l2.74-0.6V72.67C124.03,70.99,123.62,69.72,122.8,68.89z
			 M121.29,77.78c0,0.93-0.27,1.65-0.81,2.21c-0.54,0.56-1.25,0.83-2.17,0.83c-0.92,0-1.65-0.28-2.24-0.87
			c-0.59-0.58-0.88-1.29-0.88-2.17c0-0.89,0.29-1.6,0.87-2.17c0.59-0.58,1.33-0.86,2.27-0.86c0.89,0,1.59,0.27,2.14,0.83
			C121.03,76.14,121.29,76.86,121.29,77.78z"/>
	</g>
	<g>
		<path class="st0" d="M138.84,61.43c-1.9,0-3.33,0.51-4.26,1.52c-0.91,0.99-1.37,2.54-1.37,4.6c0,0.03,0,0.07,0,0.11h-1.46
			l-0.81,2.73h2.3v13.16l2.79-0.34V70.4h3.77v-2.73h-3.81c0-0.06,0-0.13,0-0.2c0-1.29,0.24-2.19,0.72-2.69
			c0.47-0.49,1.32-0.74,2.51-0.74c0.05,0,0.13,0,0.23,0.01c0.15,0.01,0.26,0.02,0.35,0.02h0.79l-0.84-2.64H138.84z"/>
		<path class="st0" d="M159.68,68.96c-0.91-1.11-2.18-1.67-3.79-1.67c-1.03,0-1.99,0.3-2.84,0.88c-0.57,0.39-1.07,0.89-1.51,1.49
			c-0.37-0.61-0.83-1.11-1.37-1.49c-0.82-0.58-1.79-0.88-2.9-0.88c-0.98,0-1.88,0.27-2.69,0.79c-0.31,0.2-0.59,0.43-0.85,0.69v-1.37
			l-2.76,0.34v15.83l2.76-0.34v-9.54c0-1.13,0.31-2.04,0.95-2.77c0.62-0.71,1.37-1.06,2.3-1.06c0.89,0,1.5,0.31,1.92,0.97
			c0.47,0.73,0.7,1.88,0.7,3.44v9.3l2.78-0.34v-9.54c0-1.15,0.3-2.06,0.93-2.79c0.6-0.7,1.36-1.04,2.3-1.04
			c0.87,0,1.49,0.32,1.92,0.98c0.47,0.73,0.71,1.89,0.71,3.43v9.3l2.76-0.34v-9.77C161,71.54,160.56,70.03,159.68,68.96z"/>
	</g>
	<g>
		<rect x="126.39" y="78.83" class="st1" width="4.43" height="4.43"/>
	</g>
	<g>
		<g>
			<rect x="63.14" y="97.56" class="st2" width="1.02" height="1.02"/>
			<rect x="125.1" y="97.56" class="st2" width="1.02" height="1.02"/>
			<rect x="116.56" y="89.77" class="st2" width="1.02" height="1.02"/>
			<path class="st2" d="M44.1,97.67l0.57-0.55c0.24,0.28,0.51,0.49,0.81,0.63c0.3,0.14,0.61,0.21,0.95,0.21
				c0.42,0,0.77-0.12,1.03-0.35c0.27-0.24,0.4-0.54,0.4-0.91c0-0.33-0.1-0.6-0.29-0.79c-0.2-0.19-0.54-0.35-1.05-0.47
				c-0.85-0.21-1.44-0.47-1.75-0.76c-0.31-0.29-0.47-0.69-0.47-1.21c0-0.54,0.21-1,0.63-1.37c0.42-0.37,0.96-0.56,1.61-0.56
				c0.39,0,0.75,0.06,1.09,0.19c0.34,0.13,0.66,0.32,0.95,0.57l-0.48,0.63c-0.26-0.22-0.52-0.39-0.79-0.51
				c-0.27-0.12-0.53-0.17-0.79-0.17c-0.43,0-0.77,0.11-1.03,0.33c-0.26,0.22-0.39,0.5-0.39,0.86c0,0.54,0.47,0.92,1.41,1.15
				c0.2,0.04,0.34,0.08,0.44,0.11c0.58,0.16,1.01,0.4,1.3,0.72c0.29,0.32,0.43,0.71,0.43,1.17c0,0.61-0.22,1.12-0.66,1.53
				c-0.44,0.4-0.99,0.61-1.66,0.61c-0.47,0-0.9-0.09-1.28-0.27C44.71,98.29,44.38,98.02,44.1,97.67z"/>
			<path class="st2" d="M54.37,97.46c-0.28,0.42-0.61,0.73-0.98,0.94c-0.37,0.21-0.78,0.31-1.24,0.31c-0.76,0-1.34-0.23-1.76-0.69
				c-0.42-0.46-0.63-1.11-0.63-1.94v-4.36l0.77-0.09v4.07c0,0.79,0.15,1.38,0.45,1.77c0.3,0.39,0.75,0.59,1.35,0.59
				c0.55,0,1.03-0.2,1.44-0.61c0.41-0.41,0.61-0.9,0.61-1.48v-4.25l0.77-0.09v6.9l-0.77,0.09V97.46z"/>
			<path class="st2" d="M60.44,97.85c-0.24,0.28-0.52,0.49-0.83,0.63c-0.31,0.14-0.64,0.21-1,0.21c-0.69,0-1.28-0.24-1.77-0.73
				c-0.49-0.49-0.73-1.08-0.73-1.77c0-0.69,0.24-1.28,0.73-1.77c0.49-0.49,1.08-0.73,1.77-0.73c0.35,0,0.68,0.07,0.99,0.2
				c0.32,0.14,0.59,0.33,0.83,0.59v-0.86c0-0.47-0.12-0.82-0.36-1.04c-0.24-0.22-0.61-0.34-1.1-0.34c-0.29,0-0.61,0.04-0.95,0.13
				c-0.34,0.08-0.73,0.22-1.17,0.41l0.3-0.89c0.33-0.12,0.66-0.2,0.98-0.26s0.63-0.09,0.93-0.09c0.74,0,1.29,0.17,1.63,0.52
				c0.34,0.35,0.52,0.89,0.52,1.64v4.82l-0.77,0.17V97.85z M56.91,96.2c0,0.5,0.17,0.92,0.51,1.26s0.77,0.5,1.29,0.5
				c0.52,0,0.94-0.16,1.26-0.49c0.32-0.32,0.48-0.75,0.48-1.27c0-0.52-0.16-0.94-0.48-1.27c-0.32-0.33-0.73-0.49-1.24-0.49
				c-0.53,0-0.96,0.17-1.3,0.5S56.91,95.69,56.91,96.2z"/>
			<polygon class="st2" points="63.22,96.51 63.12,89.56 64.05,89.34 63.99,96.51 			"/>
			<polygon class="st2" points="69.76,98.53 69.76,89.17 74.77,89.17 74.96,89.95 70.58,89.95 70.58,93.37 74.3,93.37 74.3,94.14 
				70.58,94.14 70.58,97.74 75.16,97.74 74.98,98.53 			"/>
			<polygon class="st2" points="70.28,87.59 72.99,87.25 73.55,87.94 70.61,88.01 			"/>
			<path class="st2" d="M85.71,97.19c-0.36,0.49-0.77,0.86-1.25,1.12c-0.48,0.26-1,0.39-1.56,0.39c-1.02,0-1.88-0.34-2.57-1.03
				s-1.04-1.53-1.04-2.54s0.34-1.85,1.03-2.53c0.69-0.68,1.55-1.02,2.57-1.02c0.59,0,1.12,0.13,1.6,0.39
				c0.48,0.26,0.88,0.63,1.22,1.13v-4.12l0.75-0.09v9.64l-0.75,0.09V97.19z M80.07,95.13c0,0.78,0.28,1.44,0.83,1.99
				c0.55,0.55,1.22,0.82,2,0.82c0.78,0,1.44-0.27,1.99-0.82c0.55-0.55,0.82-1.21,0.82-1.99c0-0.78-0.27-1.44-0.82-1.99
				c-0.55-0.55-1.21-0.82-1.99-0.82c-0.78,0-1.44,0.27-2,0.82C80.35,93.69,80.07,94.35,80.07,95.13z"/>
			<path class="st2" d="M91.76,97.85c-0.24,0.28-0.52,0.49-0.83,0.63c-0.31,0.14-0.64,0.21-1,0.21c-0.69,0-1.28-0.24-1.77-0.73
				c-0.49-0.49-0.73-1.08-0.73-1.77c0-0.69,0.24-1.28,0.73-1.77c0.49-0.49,1.08-0.73,1.77-0.73c0.35,0,0.68,0.07,0.99,0.2
				c0.32,0.14,0.59,0.33,0.83,0.59v-0.86c0-0.47-0.12-0.82-0.36-1.04c-0.24-0.22-0.61-0.34-1.1-0.34c-0.29,0-0.61,0.04-0.95,0.13
				c-0.34,0.08-0.73,0.22-1.17,0.41l0.3-0.89c0.33-0.12,0.66-0.2,0.98-0.26c0.32-0.06,0.63-0.09,0.93-0.09
				c0.74,0,1.29,0.17,1.63,0.52c0.34,0.35,0.52,0.89,0.52,1.64v4.82l-0.77,0.17V97.85z M88.23,96.2c0,0.5,0.17,0.92,0.51,1.26
				s0.77,0.5,1.29,0.5c0.52,0,0.94-0.16,1.26-0.49c0.32-0.32,0.48-0.75,0.48-1.27c0-0.52-0.16-0.94-0.48-1.27
				c-0.32-0.33-0.73-0.49-1.24-0.49c-0.53,0-0.96,0.17-1.3,0.5S88.23,95.69,88.23,96.2z"/>
			<path class="st2" d="M97.64,98.53v-9.36h1.77c1.05,0,1.84,0.2,2.37,0.6c0.53,0.4,0.8,1,0.8,1.8c0,0.49-0.11,0.91-0.32,1.27
				c-0.22,0.36-0.53,0.64-0.94,0.84c0.5,0.21,0.87,0.51,1.13,0.9c0.26,0.39,0.38,0.85,0.38,1.39c0,0.77-0.26,1.39-0.78,1.85
				c-0.52,0.46-1.22,0.69-2.12,0.69H97.64z M98.46,93.4h1.23c0.66,0,1.17-0.15,1.52-0.46c0.36-0.31,0.54-0.74,0.54-1.3
				c0-0.56-0.18-0.98-0.53-1.27c-0.36-0.29-0.87-0.44-1.55-0.44h-1.2V93.4z M98.46,97.75h1.31c0.74,0,1.29-0.14,1.65-0.43
				c0.36-0.29,0.55-0.73,0.55-1.31c0-0.58-0.18-1.04-0.53-1.36c-0.35-0.33-0.85-0.49-1.48-0.49h-1.5V97.75z"/>
			<path class="st2" d="M107.84,97.85c-0.24,0.28-0.52,0.49-0.83,0.63c-0.31,0.14-0.64,0.21-1,0.21c-0.69,0-1.28-0.24-1.77-0.73
				c-0.49-0.49-0.73-1.08-0.73-1.77c0-0.69,0.24-1.28,0.73-1.77c0.49-0.49,1.08-0.73,1.77-0.73c0.35,0,0.68,0.07,0.99,0.2
				c0.32,0.14,0.59,0.33,0.83,0.59v-0.86c0-0.47-0.12-0.82-0.36-1.04c-0.24-0.22-0.61-0.34-1.1-0.34c-0.29,0-0.61,0.04-0.95,0.13
				c-0.34,0.08-0.73,0.22-1.17,0.41l0.3-0.89c0.33-0.12,0.66-0.2,0.98-0.26c0.32-0.06,0.63-0.09,0.93-0.09
				c0.74,0,1.29,0.17,1.63,0.52c0.34,0.35,0.52,0.89,0.52,1.64v4.82l-0.77,0.17V97.85z M104.3,96.2c0,0.5,0.17,0.92,0.51,1.26
				c0.34,0.34,0.77,0.5,1.29,0.5c0.52,0,0.94-0.16,1.26-0.49c0.32-0.32,0.48-0.75,0.48-1.27c0-0.52-0.16-0.94-0.48-1.27
				c-0.32-0.33-0.73-0.49-1.24-0.49c-0.53,0-0.96,0.17-1.3,0.5C104.47,95.27,104.3,95.69,104.3,96.2z"/>
			<path class="st2" d="M109.96,98.62v-9.64l0.77-0.09v3.91c0.29-0.42,0.62-0.73,0.99-0.94c0.37-0.21,0.78-0.31,1.24-0.31
				c0.75,0,1.34,0.23,1.75,0.69c0.42,0.46,0.62,1.1,0.62,1.94v4.36l-0.75,0.09v-4.07c0-0.79-0.15-1.38-0.46-1.77
				c-0.3-0.39-0.76-0.59-1.36-0.59c-0.55,0-1.02,0.2-1.43,0.61c-0.4,0.41-0.61,0.9-0.61,1.48v4.25L109.96,98.62z"/>
			<polygon class="st2" points="116.8,98.64 116.8,91.73 117.58,91.64 117.58,98.53 			"/>
			<path class="st2" d="M123,97.85c-0.24,0.28-0.52,0.49-0.83,0.63c-0.31,0.14-0.64,0.21-1,0.21c-0.69,0-1.28-0.24-1.77-0.73
				c-0.49-0.49-0.73-1.08-0.73-1.77c0-0.69,0.24-1.28,0.73-1.77c0.49-0.49,1.08-0.73,1.77-0.73c0.35,0,0.68,0.07,0.99,0.2
				c0.32,0.14,0.59,0.33,0.83,0.59v-0.86c0-0.47-0.12-0.82-0.36-1.04c-0.24-0.22-0.61-0.34-1.1-0.34c-0.29,0-0.61,0.04-0.95,0.13
				c-0.34,0.08-0.73,0.22-1.17,0.41l0.3-0.89c0.33-0.12,0.66-0.2,0.98-0.26c0.32-0.06,0.63-0.09,0.93-0.09
				c0.74,0,1.29,0.17,1.63,0.52c0.34,0.35,0.52,0.89,0.52,1.64v4.82L123,98.7V97.85z M119.46,96.2c0,0.5,0.17,0.92,0.51,1.26
				s0.77,0.5,1.29,0.5c0.52,0,0.94-0.16,1.26-0.49c0.32-0.32,0.48-0.75,0.48-1.27c0-0.52-0.16-0.94-0.48-1.27
				c-0.32-0.33-0.73-0.49-1.24-0.49c-0.53,0-0.96,0.17-1.3,0.5S119.46,95.69,119.46,96.2z"/>
			<polygon class="st2" points="34.88,98.53 34.88,89.17 39.89,89.17 40.08,89.95 35.7,89.95 35.7,93.37 39.41,93.37 39.41,94.14 
				35.7,94.14 35.7,97.74 40.27,97.74 40.09,98.53 			"/>
			<polygon class="st2" points="35.4,87.59 38.11,87.25 38.67,87.94 35.73,88.01 			"/>
		</g>
	</g>
	<g>
		<g>
			<g>
				<path class="st3" d="M75.26,3.89c3.47,1.57,7.37,3.64,11.75,6.17c14.75,8.52,21.87,14.93,21.54,21.37
					c0.33,6.44-6.79,12.85-21.54,21.37c-11.36,6.56-21.35,11.19-27.68,9.42c-4.99-1.4-7.54-6.72-6.75-11.64
					c1.03-6.44,6.57-12.9,6.57-19.14s-5.54-12.7-6.57-19.14C51.8,7.37,54.34,2.04,59.33,0.65C63.14-0.42,68.33,0.75,75.26,3.89"/>
			</g>
			<g>
				<path class="st4" d="M75.26,58.97c3.47-1.57,7.37-3.64,11.75-6.17c5.28-3.05,9.57-5.82,12.9-8.43
					c-24.3,9.82-33.64-19.94-47.33,6.2c-0.78,4.92,1.76,10.25,6.75,11.64C63.14,63.28,68.33,62.12,75.26,58.97"/>
			</g>
			<g>
				<path class="st4" d="M75.26,3.89c3.47,1.57,7.37,3.64,11.75,6.17c5.28,3.05,9.57,5.82,12.9,8.43
					c-24.3-9.82-33.64,19.94-47.33-6.2C51.8,7.37,54.34,2.04,59.33,0.65C63.14-0.42,68.33,0.75,75.26,3.89"/>
			</g>
		</g>
		<g>
			<g>
				<polygon class="st0" points="64.85,29.69 67.58,28.24 67.58,37.89 69.61,37.62 69.61,24.85 64.06,28.04 				"/>
				<path class="st0" d="M75.59,25.45c-1.31,0-2.38,0.6-3.18,1.79c-0.76,1.12-1.14,2.62-1.14,4.44c0,1.82,0.39,3.32,1.15,4.44
					c0.81,1.19,1.88,1.8,3.18,1.8c1.31,0,2.38-0.61,3.18-1.8c0.76-1.13,1.15-2.62,1.15-4.44c0-1.82-0.38-3.31-1.14-4.44
					C77.97,26.06,76.9,25.45,75.59,25.45z M77.16,34.93c-0.42,0.71-0.93,1.05-1.57,1.05c-0.65,0-1.15-0.33-1.57-1.05
					c-0.46-0.79-0.7-1.88-0.7-3.25c0-1.37,0.24-2.46,0.7-3.24c0.42-0.71,0.92-1.04,1.57-1.04c0.64,0,1.15,0.34,1.57,1.05
					c0.47,0.79,0.71,1.88,0.71,3.24C77.86,33.04,77.63,34.13,77.16,34.93z"/>
				<polygon class="st0" points="80.53,27.7 86.03,27.7 82.11,38.01 84.5,37.63 88.91,25.69 81.07,25.69 				"/>
				<path class="st0" d="M99.39,30.78c-0.78-0.8-1.75-1.21-2.88-1.21c-0.3,0-0.59,0.03-0.88,0.08c-0.03,0-0.05,0.01-0.08,0.02v-1.99
					h3.83l0.68-1.99h-6.54v7.04l0.85-0.53c0.35-0.22,0.69-0.38,1.01-0.48c0.31-0.1,0.63-0.15,0.96-0.15c0.63,0,1.14,0.2,1.55,0.61
					c0.41,0.41,0.61,0.91,0.61,1.53c0,0.63-0.21,1.15-0.64,1.59c-0.43,0.44-0.93,0.65-1.53,0.65c-0.4,0-0.79-0.11-1.18-0.33
					c-0.4-0.22-0.73-0.52-1-0.91l-0.33-0.48l-1.62,1.28l0.33,0.43c0.49,0.65,1.06,1.14,1.7,1.48c0.64,0.34,1.36,0.51,2.12,0.51
					c1.16,0,2.17-0.42,2.99-1.24s1.24-1.83,1.24-2.99C100.56,32.56,100.16,31.58,99.39,30.78z"/>
			</g>
			<g>
				<rect x="87.71" y="34.23" class="st1" width="2.98" height="2.98"/>
			</g>
		</g>
	</g>
</g>
</svg>
