<?xml version="1.0" encoding="utf-8"?>
<!-- Generator: Adobe Illustrator 24.0.1, SVG Export Plug-In . SVG Version: 6.00 Build 0)  -->
<svg version="1.1" id="Camada_1" xmlns="http://www.w3.org/2000/svg" xmlns:xlink="http://www.w3.org/1999/xlink" x="0px" y="0px"
	 viewBox="0 0 270 300" style="enable-background:new 0 0 270 300;" xml:space="preserve">
<style type="text/css">
	.st0{fill-rule:evenodd;clip-rule:evenodd;fill:#bd1f2e;}
	.st1{fill-rule:evenodd;clip-rule:evenodd;fill:#ac1f2e;}
</style>
<g>
	<g>
		<path class="st0" d="M109.8,17.5c16.7,7.6,35.4,17.5,56.5,29.7c71,41,105.2,71.9,103.6,102.8c1.6,31-32.6,61.8-103.6,102.8
			c-54.7,31.6-102.7,53.8-133.2,45.3c-24-6.7-36.3-32.3-32.5-56c4.9-31,31.6-62.1,31.6-92.1S5.6,88.9,0.7,57.9
			c-3.8-23.7,8.5-49.3,32.5-56C51.5-3.3,76.4,2.3,109.8,17.5"/>
	</g>
	<g>
		<path class="st1" d="M109.8,282.5c16.7-7.6,35.4-17.5,56.5-29.7c25.4-14.7,46.1-28,62.1-40.6c-116.9,47.2-161.8-96-227.7,29.8
			c-3.8,23.7,8.5,49.3,32.5,56C51.5,303.3,76.4,297.7,109.8,282.5"/>
	</g>
	<g>
		<path class="st1" d="M109.8,17.5c16.7,7.6,35.4,17.5,56.5,29.7c25.4,14.7,46.1,28,62.1,40.6C111.5,40.5,66.5,183.7,0.7,57.9
			c-3.8-23.7,8.5-49.3,32.5-56C51.5-3.3,76.4,2.3,109.8,17.5"/>
	</g>
</g>
</svg>
