<?xml version="1.0" encoding="utf-8"?>
<!-- Generator: Adobe Illustrator 24.0.1, SVG Export Plug-In . SVG Version: 6.00 Build 0)  -->
<svg version="1.1" id="Camada_1" xmlns="http://www.w3.org/2000/svg" xmlns:xlink="http://www.w3.org/1999/xlink" x="0px" y="0px"
	 viewBox="0 0 59 40" style="enable-background:new 0 0 59 40;" xml:space="preserve">
<style type="text/css">
	.st0{fill:#FFFFFF;}
</style>
<g>
	<g>
		<path class="st0" d="M12,0.1v12H9V6.8l-3,3l-3-3l-3-3V0.1h0.5L6,5.7l5.5-5.6H12z M0,5.2l3,3v3.9H0V5.2z"/>
		<path class="st0" d="M16.7,4.4l-3-3V0.1h3V4.4z M20,9.1l2.4,2.4l-0.3,0.1c-0.8,0.3-1.5,0.5-2.4,0.5c-1.2,0-2.4-0.4-3.4-1
			c-1.6-1.1-2.6-3-2.6-4.9V2.8l3,3v0.3c0,0.8,0.3,1.6,0.9,2.1c0.6,0.6,1.3,0.9,2.1,0.9C19.8,9.1,19.9,9.1,20,9.1L20,9.1z M25.7,0.1
			v6c0,0.9-0.2,1.8-0.6,2.7c-0.4,0.8-1,1.5-1.7,2.1L23.3,11l-2.1-2.1l0.2-0.2c0.2-0.1,0.4-0.3,0.5-0.4c0.6-0.6,0.9-1.3,0.9-2.1v-6
			H25.7z"/>
		<path class="st0" d="M31,9.2l2.9,2.9h-6.4v-12h3v9L31,9.2L31,9.2z M35.8,9.2v2.9h-0.6l-3-2.9H35.8z"/>
		<path class="st0" d="M47.6,0.1v3h-4.5v4.4l-3-3V3.1h-4.5v-3H47.6z M40.2,5.9l3,3v3.2h-3V5.9z"/>
		<path class="st0" d="M52.4,0.1v4.4l-3-3V0.1H52.4z M49.4,3l3,3v6.2h-3V3z"/>
	</g>
	<g>
		<path class="st0" d="M13.6,21.2h3.1l-0.1,0.3c-0.2,0.9-0.6,1.7-1.2,2.4c-0.5,0.7-1.3,1.3-2,1.7c-0.1,0.1-0.3,0.1-0.4,0.2
			c-0.8,0.3-1.6,0.5-2.4,0.5c-1.6,0-3.2-0.6-4.4-1.8c-1.2-1.2-1.8-2.7-1.8-4.4c0-0.7,0.1-1.4,0.3-2.1L5,17.6l2.6,2.6v0.1
			c0.1,0.7,0.4,1.4,0.9,2c0.5,0.5,1.2,0.8,2,0.9c0.1,0,0.3,0,0.4,0c0.3,0,0.6-0.1,0.9-0.2c0.1,0,0.2-0.1,0.3-0.1
			c0.3-0.2,0.6-0.3,0.8-0.6C13.2,22,13.4,21.6,13.6,21.2L13.6,21.2z M7.7,19l-2.3-2.3l0.1-0.2c1.2-1.7,3.1-2.7,5.1-2.7
			c1.4,0,2.8,0.5,3.9,1.4c1.1,0.9,1.8,2.1,2.1,3.4l0.1,0.3h-3.1l-0.1-0.1c-0.2-0.4-0.4-0.7-0.7-1c-0.6-0.6-1.4-0.9-2.2-0.9
			S9,17.3,8.4,17.9c-0.2,0.2-0.4,0.5-0.6,0.8L7.7,19z"/>
		<path class="st0" d="M21.4,18.5l-3-3v-1.4h3V18.5z M24.7,23.2l2.4,2.4l-0.3,0.1c-0.8,0.3-1.5,0.5-2.4,0.5c-1.2,0-2.4-0.4-3.4-1
			c-1.6-1.1-2.6-3-2.6-4.9v-3.3l3,3v0.3c0,0.8,0.3,1.6,0.9,2.1c0.6,0.6,1.3,0.9,2.1,0.9C24.5,23.2,24.6,23.2,24.7,23.2L24.7,23.2z
			 M30.4,14.2v6.1c0,0.9-0.2,1.8-0.6,2.7c-0.4,0.8-1,1.5-1.7,2.1L28,25.1L25.8,23l0.2-0.2c0.2-0.1,0.4-0.3,0.5-0.4
			c0.6-0.6,0.9-1.3,0.9-2.1v-6.1H30.4z"/>
		<path class="st0" d="M35.7,23.3l2.9,2.9h-6.4V14.2h3v9.1L35.7,23.3L35.7,23.3z M40.5,23.3v3h-0.6l-3-3H40.5z"/>
		<path class="st0" d="M52.4,14.2l0,3h-4.5v4.4l-3-3v-1.4h-4.5l0-3H52.4z M44.9,20l3,3v3.2h-3V20z"/>
	</g>
	<g>
		<path class="st0" d="M20.1,32.2l-3-3v-1.3h3V32.2z M23.5,36.9l2.4,2.4l-0.3,0.1c-0.8,0.3-1.5,0.5-2.4,0.5c-1.2,0-2.4-0.4-3.4-1
			c-1.6-1.1-2.6-3-2.6-4.9v-3.3l3,3v0.3c0,0.8,0.3,1.6,0.9,2.1c0.6,0.6,1.3,0.9,2.1,0.9C23.2,36.9,23.3,36.9,23.5,36.9L23.5,36.9z
			 M29.2,27.9v6c0,0.9-0.2,1.8-0.6,2.7c-0.4,0.8-1,1.5-1.7,2.1l-0.2,0.1l-2.1-2.1l0.2-0.2c0.2-0.1,0.4-0.3,0.5-0.4
			c0.6-0.6,0.9-1.3,0.9-2.1v-6L29.2,27.9z"/>
		<path class="st0" d="M43.1,39.9h-4.6l0,0l-4.6-4.6v0l-3-3v-4.4h8c0.2,0,0.5,0,0.7,0.1c0.7,0.1,1.3,0.5,1.8,1
			c0.5,0.5,0.8,1,0.9,1.7c0.1,0.3,0.1,0.5,0.1,0.8c0,0.1,0,0.2,0,0.4c0,1-0.4,1.8-1.1,2.5c-0.7,0.7-1.6,1.1-2.5,1.1h0
			c-0.1,0-0.1,0-0.2,0L43.1,39.9z M30.9,33.6l3,3v3.3h-3V33.6z M38.4,32.4c0.1,0,0.1,0,0.2,0c0.1,0,0.1,0,0.2-0.1
			c0.1-0.1,0.3-0.1,0.4-0.2c0,0,0,0,0.1-0.1c0,0,0,0,0.1-0.1c0,0,0,0,0-0.1c0,0,0-0.1,0.1-0.1c0.1-0.1,0.1-0.3,0.1-0.4
			c0,0,0,0,0-0.1c0,0,0,0,0-0.1c0,0,0-0.1,0-0.1c0-0.1,0-0.1-0.1-0.2h-5.2l1.4,1.4L38.4,32.4L38.4,32.4z"/>
		<path class="st0" d="M49.3,31.5l1.7,2.9l-3.4,5.5h-3.5L49.3,31.5z M59,39.9h-3.5l-0.7-1.2l-4.9-8.2l1.7-2.8L59,39.9z"/>
	</g>
</g>
</svg>
