<?xml version="1.0" encoding="UTF-8"?><svg id="Layer_1" xmlns="http://www.w3.org/2000/svg" viewBox="0 0 600 367"><defs><style>.cls-1{fill:#fff;}.cls-2{fill:#ac1f2e;}.cls-2,.cls-3{fill-rule:evenodd;}.cls-4{fill:#9b9b9b;}.cls-5{fill:#f6ce18;}.cls-3{fill:#be1f2e;}</style></defs><path class="cls-1" d="m38.7198,297.8946c-2.9457,1.2574-5.9562,1.8939-8.9484,1.8939-3.7272,0-7.125-.9237-10.0974-2.7444-2.4346-1.4898-4.4791-3.5216-6.0999-6.0548l40.7911-24.0869-.9293-1.8136c-2.26-4.4073-5.4733-7.8304-9.5483-10.1749-4.0398-2.3248-8.7893-3.5033-14.1161-3.5033-8.4091,0-15.5454,2.8183-21.2115,8.3753-5.6803,5.569-8.5598,12.6123-8.5598,20.9355,0,8.3162,2.8584,15.382,8.495,21.0003,5.6352,5.6169,12.7925,8.4655,21.2763,8.4655,3.8342,0,7.5995-.6519,11.1901-1.9389,3.5498-1.2715,7.1714-3.2696,10.7663-5.9393l.873-.6477v-13.0474l-3.5019,2.7599c-3.8427,3.0288-7.3348,5.2226-10.3791,6.5209Zm-8.9484-36.4422c2.5599,0,4.8495.4083,6.8039,1.2145,1.0659.4393,2.015.9857,2.8612,1.6489l-28.9293,17.2111c-.0042-.2873-.0056-.59-.0056-.9068,0-5.4381,1.8277-9.8933,5.5859-13.6205,3.7624-3.7329,8.2388-5.5472,13.6839-5.5472Z"/><path class="cls-1" d="m102.8782,259.1684c-1.8516-1.8193-3.899-3.3379-6.1238-4.539-3.961-2.1361-8.4176-3.2189-13.2473-3.2189-8.4105,0-15.5482,2.8275-21.2143,8.4035-5.6774,5.5859-8.557,12.6193-8.557,20.9074s2.8852,15.3468,8.5767,20.9792c5.6845,5.631,12.8151,8.4866,21.1946,8.4866,4.6242,0,8.985-1.0828,12.9643-3.2175,2.3036-1.2363,4.4454-2.8077,6.4068-4.6946v7.6375l10.0411-1.256v-78.1492l-10.0411,1.2546v27.4064Zm-5.669,7.8508c3.8145,3.8145,5.669,8.2965,5.669,13.7022s-1.8545,9.8905-5.669,13.7036c-3.8131,3.8145-8.2951,5.669-13.7022,5.669-5.4113,0-9.913-1.8559-13.7613-5.676-3.8455-3.8117-5.714-8.2923-5.714-13.6965,0-5.4014,1.8685-9.882,5.714-13.6965,3.8497-3.818,8.3514-5.6746,13.7613-5.6746,5.4057,0,9.8876,1.8545,13.7022,5.669Z"/><path class="cls-1" d="m154.0624,287.2029c0,3.861-1.3208,7.0574-4.0356,9.7736-2.7162,2.7148-5.8126,4.0356-9.468,4.0356-3.9187,0-6.7377-1.1912-8.6175-3.6441-1.9896-2.5923-2.9978-6.7166-2.9978-12.2575v-33.5711l-10.1946,1.2426v35.2376c0,6.8898,1.8136,12.3673,5.3888,16.2832,3.6258,3.9722,8.7034,5.9858,15.0934,5.9858,3.861,0,7.4094-.8913,10.5494-2.6486,1.5095-.8463,2.9401-1.9037,4.282-3.1654v5.431l10.1946-1.2433v-57.1229l-10.1946,1.2426v34.4209Z"/><path class="cls-1" d="m212.1026,295.1178c-2.3501,1.6179-4.7917,2.8683-7.2601,3.716-2.4318.8364-4.8129,1.2602-7.0785,1.2602-5.4085,0-9.9073-1.8643-13.7571-5.6971-3.8469-3.83-5.7169-8.3035-5.7169-13.6754,0-5.3691,1.8699-9.8426,5.7169-13.674,3.8497-3.8335,8.3486-5.6971,13.7571-5.6971,2.4782,0,4.8523.3668,7.0546,1.0906,2.2346.735,4.589,1.927,6.9982,3.5435l1.6263,1.0913,6.6096-8.0036-1.9052-1.3454c-3.0626-2.1614-6.2801-3.773-9.5638-4.7903-3.2752-1.0124-6.9166-1.5257-10.8198-1.5257-8.4077,0-15.544,2.8183-21.2129,8.376-5.6774,5.5697-8.557,12.613-8.557,20.9348,0,8.2866,2.8852,15.3454,8.5753,20.9792,5.6859,5.631,12.8165,8.4866,21.1946,8.4866,3.5428,0,7.1433-.5942,10.7043-1.7672,3.5357-1.1673,6.8912-2.85,9.9763-5.0016l1.9136-1.3363-6.6152-8.0951-1.6404,1.1307Z"/><path class="cls-1" d="m244.8647,251.1557c-2.3938,0-4.9086.2344-7.477.6977-2.543.4597-5.1762,1.1575-7.8248,2.0748l-1.0012.3471-4.1834,12.3595,4.4397-1.884c3.2442-1.3764,6.1562-2.3874,8.6556-3.0042,2.4402-.602,4.7213-.9068,6.7786-.9068,3.2217,0,5.5634.6688,6.9616,1.9868,1.3616,1.2849,2.0516,3.4435,2.0516,6.4132v1.908c-1.0603-.7111-2.184-1.3222-3.3639-1.8291-2.6768-1.1476-5.5225-1.7305-8.4556-1.7305-5.8422,0-10.9057,2.1009-15.0525,6.2463-4.1454,4.144-6.2463,9.2089-6.2463,15.0525,0,5.8774,2.0924,10.9507,6.221,15.0779,4.1285,4.1285,9.2019,6.2224,15.0779,6.2224,3.0584,0,5.9393-.6167,8.564-1.8347,1.1321-.5238,2.2192-1.1617,3.2555-1.9094v4.2651l10.1946-2.2177v-38.6381c0-6.2794-1.5419-11.0155-4.5848-14.0781-3.0457-3.0647-7.76-4.6185-14.0105-4.6185Zm8.4007,37.7313c0,3.4583-.9913,6.152-3.0302,8.2331h-.0014c-2.0262,2.0699-4.6664,3.0767-8.0726,3.0767-3.4217,0-6.1548-1.0561-8.357-3.2316-2.1938-2.1628-3.2597-4.8058-3.2597-8.0782,0-3.3034,1.0645-5.9534,3.2555-8.1008,2.2023-2.1586,4.9692-3.2076,8.4626-3.2076,3.3358,0,5.9422,1.0124,7.967,3.095,2.0431,2.1009,3.0359,4.7875,3.0359,8.2134Z"/><path class="cls-1" d="m316.2889,259.1692c-1.8516-1.82-3.899-3.3379-6.1238-4.5397-3.9624-2.1361-8.4204-3.2189-13.2488-3.2189-8.4091,0-15.5468,2.8275-21.2143,8.4035-5.6774,5.5859-8.5556,12.6207-8.5556,20.9074s2.8852,15.3454,8.5753,20.9792c5.6859,5.631,12.8165,8.4866,21.1946,8.4866,4.6242,0,8.985-1.0828,12.9629-3.2175,2.3036-1.2363,4.4468-2.8063,6.4096-4.696v7.6389l10.0397-1.256v-78.1492l-10.0397,1.2546v27.4071Zm-5.669,7.8501c3.8145,3.8145,5.669,8.2965,5.669,13.7022s-1.8545,9.8905-5.669,13.7036c-3.8131,3.8145-8.2965,5.669-13.7036,5.669-5.4113,0-9.9116-1.8559-13.7599-5.676-3.8455-3.8117-5.714-8.2923-5.714-13.6965,0-5.4014,1.8685-9.882,5.714-13.6965,3.8497-3.818,8.35-5.6746,13.7599-5.6746,5.4057,0,9.889,1.8545,13.7036,5.669Z"/><path class="cls-1" d="m359.837,251.4106c-8.4091,0-15.5468,2.8275-21.2143,8.4035-5.676,5.5845-8.5542,12.6193-8.5542,20.9074s2.8852,15.3454,8.5739,20.9792c5.6859,5.631,12.8165,8.4866,21.1946,8.4866s15.4961-2.8472,21.1453-8.4626c5.6563-5.6183,8.5232-12.6841,8.5232-21.0031,0-8.2852-2.8697-15.3187-8.5274-20.9046-5.6507-5.5782-12.763-8.4063-21.1411-8.4063Zm19.3726,29.3109c0,5.4085-1.8545,9.8905-5.6676,13.7036-3.8145,3.8145-8.2979,5.669-13.705,5.669-5.4099,0-9.9102-1.8559-13.7599-5.676-3.8441-3.8103-5.7126-8.2909-5.7126-13.6965,0-5.4029,1.8685-9.8834,5.714-13.6965,3.8497-3.818,8.35-5.6746,13.7585-5.6746,5.4057,0,9.889,1.8545,13.705,5.669,3.8131,3.8145,5.6676,8.2965,5.6676,13.7022Z"/><path class="cls-1" d="m420.3794,260.8054l4.1398-9.9559h-4.6692c-4.4327,0-8.4021,1.1532-11.7956,3.4287-1.5658,1.0504-3.0218,2.3473-4.3623,3.8828v-6.6244l-10.1439,1.2476v57.1229l10.1439-1.2462v-21.5593c0-8.671,1.3166-15.2088,3.9145-19.4345,2.4712-4.018,6.228-6.2217,11.483-6.7356l1.2898-.126Z"/><path class="cls-1" d="m457.6418,255.7749l-.0014-.0007c-3.0457-3.0647-7.76-4.6185-14.0105-4.6185-2.3924,0-4.9086.2344-7.4784.6977-2.5458.4604-5.1776,1.1582-7.8248,2.0748l-1.0012.3471-4.182,12.3595,4.4397-1.884c3.2442-1.3764,6.1562-2.3874,8.6556-3.0042,2.4402-.602,4.7213-.9068,6.7786-.9068,3.2217,0,5.5634.6688,6.9602,1.9861,1.363,1.287,2.053,3.4442,2.053,6.4139v1.908c-1.0617-.7111-2.1854-1.3222-3.3639-1.8291-2.6768-1.1476-5.5225-1.7305-8.4556-1.7305-5.8436,0-10.9085,2.1009-15.0525,6.2463-4.1454,4.1454-6.2477,9.2103-6.2477,15.0525,0,5.876,2.0924,10.9479,6.221,15.0779,4.1285,4.1285,9.2019,6.2224,15.0793,6.2224,3.0584,0,5.9393-.6167,8.564-1.8347,1.1321-.5238,2.2192-1.1617,3.2555-1.9094v4.2651l10.1932-2.2177v-38.6381c0-6.2801-1.5419-11.0162-4.5819-14.0774Zm-5.6113,33.112c0,3.4583-.9913,6.152-3.0302,8.2331-2.0277,2.0699-4.6692,3.0767-8.0754,3.0767-3.4203,0-6.1534-1.0561-8.3542-3.2302-2.1952-2.1656-3.2611-4.8072-3.2611-8.0796,0-3.302,1.0645-5.952,3.2555-8.1008,2.2023-2.1586,4.9692-3.2076,8.4626-3.2076,3.3344,0,5.9407,1.0124,7.967,3.095,2.0431,2.1009,3.0359,4.7875,3.0359,8.2134Z"/><path class="cls-1" d="m517.4068,227.9496c-7.0813,0-12.418,1.9073-15.8594,5.669-3.3921,3.7054-5.1114,9.4758-5.1114,17.1506,0,.1105.0028.252.0099.4259h-5.4296l-3.0288,10.1904h8.5556v49.0411l10.4016-1.2659v-47.7752h14.0528v-10.1904h-14.2091c-.0014-.2239-.0028-.471-.0028-.7428,0-4.7889.9012-8.1613,2.6768-10.0242,1.7503-1.834,4.903-2.7641,9.3723-2.7641.1788,0,.4689.0176.866.0465.5449.0415.9758.0591,1.2997.0591h2.9556l-3.1175-9.82h-3.4315Z"/><path class="cls-1" d="m595.0745,256.0059c-3.3752-4.1384-8.1332-6.2372-14.1429-6.2372-3.8455,0-7.4108,1.1046-10.5973,3.283-2.1192,1.4468-4.0018,3.3118-5.6253,5.5676-1.3757-2.2635-3.0851-4.1285-5.1072-5.5697-3.057-2.1769-6.687-3.2809-10.7916-3.2809-3.6484,0-7.0222.9878-10.027,2.9373-1.1391.7392-2.2023,1.5968-3.1837,2.5698v-5.1043l-10.2946,1.275v58.9858l10.2946-1.2743v-35.5656c0-4.2215,1.156-7.6023,3.5371-10.3347,2.3022-2.6465,5.1029-3.9328,8.564-3.9328,3.3006,0,5.5761,1.1525,7.1588,3.6258,1.7376,2.7141,2.6176,7.0229,2.6176,12.8073v34.6715l10.3495-1.2701v-35.567c0-4.2933,1.1335-7.6924,3.4639-10.3953,2.2473-2.6057,5.0551-3.8723,8.5851-3.8723,3.2245,0,5.569,1.1976,7.1658,3.6617,1.7672,2.7275,2.6627,7.025,2.6627,12.7714v34.6743l10.296-1.2743v-36.4105c0-7.101-1.6573-12.7334-4.9255-16.7415Z"/><rect class="cls-5" x="471.0215" y="292.7965" width="16.4911" height="16.4911"/><rect class="cls-4" x="235.3133" y="362.6274" width="3.8117" height="3.8117"/><rect class="cls-4" x="466.2037" y="362.6274" width="3.8117" height="3.8117"/><rect class="cls-4" x="434.3974" y="333.5869" width="3.8117" height="3.8117"/><path class="cls-4" d="m164.3303,363.023l2.1381-2.0382c.9111,1.0439,1.9175,1.8314,3.0197,2.3611,1.1023.5309,2.2826.7955,3.542.7955,1.5743,0,2.8586-.4391,3.8528-1.3172.9937-.8781,1.4911-2.0134,1.4911-3.4051,0-1.2433-.3645-2.2208-1.0936-2.9331-.7291-.7123-2.0301-1.301-3.9019-1.7649-3.1821-.7955-5.3532-1.7355-6.5127-2.821-1.1601-1.085-1.7395-2.5888-1.7395-4.5114,0-2.0214.7869-3.724,2.3606-5.1076,1.5749-1.3836,3.5715-2.0758,5.991-2.0758,1.4414,0,2.7996.2403,4.0764.721,1.2756.4807,2.4518,1.193,3.5287,2.1376l-1.7892,2.3363c-.9613-.8285-1.9388-1.4576-2.9331-1.8891-.9937-.4304-1.9723-.6459-2.9325-.6459-1.591,0-2.8713.4061-3.8407,1.2178-.9694.8123-1.4535,1.8811-1.4535,3.2064,0,2.0053,1.7476,3.4299,5.2446,4.2751.7285.1658,1.2756.3068,1.6402.4223,2.1537.6135,3.7696,1.5084,4.8465,2.6847,1.0769,1.1768,1.6159,2.6344,1.6159,4.3745,0,2.2866-.8198,4.1844-2.4605,5.6923-1.6407,1.5073-3.7038,2.2618-6.1891,2.2618-1.7569,0-3.3514-.3357-4.7847-1.007-1.4333-.6707-2.672-1.6609-3.7165-2.9701Z"/><path class="cls-4" d="m202.6332,362.2523c-1.0607,1.5581-2.2785,2.7216-3.6535,3.4923-1.3761.7707-2.9169,1.156-4.6229,1.156-2.8175,0-5.0088-.8579-6.5745-2.5726-1.5662-1.7153-2.349-4.122-2.349-7.2209v-16.2305l2.8586-.3478v15.1617c0,2.9498.5592,5.1539,1.6777,6.6114,1.1185,1.4587,2.7962,2.1873,5.0331,2.1873,2.0544,0,3.8401-.758,5.3566-2.2739,1.5159-1.5165,2.2739-3.3514,2.2739-5.5057v-15.833l2.8586-.3478v25.7005l-2.8586.3478v-4.3248Z"/><path class="cls-4" d="m225.2522,363.6943c-.9116,1.0439-1.9388,1.8308-3.0827,2.3611-1.1427.5298-2.386.7955-3.728.7955-2.5853,0-4.7847-.9076-6.5993-2.7222-1.814-1.814-2.7216-4.014-2.7216-6.5987,0-2.5685.9111-4.7639,2.7344-6.5872,1.8221-1.8221,4.0175-2.7338,6.5866-2.7338,1.2924,0,2.5264.2525,3.7038.758,1.1762.5055,2.2115,1.2392,3.107,2.2v-3.2064c0-1.7563-.4437-3.0533-1.3299-3.8904-.8868-.8365-2.2583-1.2548-4.114-1.2548-1.0936,0-2.2785.1577-3.5541.472-1.2762.3149-2.7344.8204-4.3751,1.5165l1.1185-3.3063c1.2433-.4304,2.4611-.7533,3.6541-.9688s2.345-.3235,3.4554-.3235c2.7667,0,4.7928.6465,6.0771,1.9388,1.2837,1.2924,1.9261,3.3306,1.9261,6.1146v17.9706l-2.858.6216v-3.1567Zm-13.1738-6.1643c0,1.8724.6338,3.434,1.9013,4.6853,1.2675,1.2513,2.8713,1.8764,4.8095,1.8764s3.5004-.6049,4.6853-1.8146c1.1849-1.2092,1.7776-2.7921,1.7776-4.7471,0-1.9388-.5927-3.5172-1.7776-4.735s-2.7297-1.8273-4.6351-1.8273c-1.9723,0-3.5923.6216-4.8598,1.8643-1.2675,1.2427-1.9013,2.8089-1.9013,4.698Z"/><polygon class="cls-4" points="235.5922 358.7141 235.219 332.7895 238.6992 331.9691 238.4751 358.7141 235.5922 358.7141"/><polygon class="cls-4" points="259.9755 366.2293 259.9755 331.3569 278.6417 331.3569 279.3627 334.2652 263.0328 334.2652 263.0328 346.9912 276.8774 346.9912 276.8774 349.8492 263.0328 349.8492 263.0328 363.2714 280.0837 363.2714 279.4124 366.2293 259.9755 366.2293"/><polygon class="cls-4" points="261.8985 325.4618 272.0293 324.1956 274.0955 326.776 263.1414 327.014 261.8985 325.4618"/><path class="cls-4" d="m319.43,361.2332c-1.3259,1.8233-2.8828,3.215-4.6726,4.1758s-3.7286,1.442-5.8165,1.442c-3.8118,0-7.0054-1.2762-9.5821-3.828-2.5766-2.5518-3.865-5.7085-3.865-9.47s1.2837-6.9055,3.8528-9.433c2.568-2.5264,5.7662-3.7904,9.5942-3.7904,2.1873,0,4.1711.4812,5.9528,1.442,1.7811.9608,3.2936,2.3611,4.5363,4.2006v-15.3362l2.784-.3478v35.9412l-2.784.3478v-5.3439Zm-21.0279-7.6802c0,2.9002,1.0318,5.3728,3.0943,7.4191,2.0636,2.0469,4.5444,3.07,7.4445,3.07s5.3728-1.0231,7.4191-3.07c2.0469-2.0463,3.07-4.5189,3.07-7.4191s-1.0231-5.3728-3.07-7.4197c-2.0463-2.0463-4.5195-3.0694-7.4191-3.0694s-5.3809,1.0231-7.4445,3.0694c-2.0625,2.0469-3.0943,4.5201-3.0943,7.4197Z"/><path class="cls-4" d="m341.9744,363.6943c-.9116,1.0439-1.9388,1.8308-3.0821,2.3611-1.1433.5298-2.386.7955-3.7286.7955-2.5847,0-4.7847-.9076-6.5987-2.7222-1.8146-1.814-2.7222-4.014-2.7222-6.5987,0-2.5685.9116-4.7639,2.7344-6.5872,1.8227-1.8221,4.0181-2.7338,6.5866-2.7338,1.2929,0,2.527.2525,3.7038.758,1.1762.5055,2.2121,1.2392,3.107,2.2v-3.2064c0-1.7563-.4437-3.0533-1.3299-3.8904-.8868-.8365-2.2583-1.2548-4.114-1.2548-1.093,0-2.2785.1577-3.5541.472-1.2756.3149-2.7338.8204-4.3745,1.5165l1.1185-3.3063c1.2433-.4304,2.4611-.7533,3.6535-.9688,1.1936-.2155,2.345-.3235,3.4554-.3235,2.7667,0,4.7928.6465,6.0771,1.9388,1.2837,1.2924,1.9261,3.3306,1.9261,6.1146v17.9706l-2.858.6216v-3.1567Zm-13.1738-6.1643c0,1.8724.6343,3.434,1.9019,4.6853,1.2675,1.2513,2.8707,1.8764,4.809,1.8764s3.501-.6049,4.6853-1.8146c1.1849-1.2092,1.7776-2.7921,1.7776-4.7471,0-1.9388-.5927-3.5172-1.7776-4.735-1.1843-1.2178-2.7297-1.8273-4.6351-1.8273-1.9723,0-3.5917.6216-4.8592,1.8643s-1.9019,2.8089-1.9019,4.698Z"/><path class="cls-4" d="m363.8724,366.2293v-34.8724h6.6114c3.9106,0,6.8558.7499,8.8362,2.2491,1.9799,1.5003,2.9706,3.7407,2.9706,6.7235,0,1.8233-.4021,3.4016-1.2063,4.735-.8036,1.334-1.9758,2.3825-3.5166,3.1445,1.8556.7955,3.2601,1.914,4.2133,3.3554.9521,1.4414,1.4287,3.1734,1.4287,5.1949,0,2.8834-.9654,5.1822-2.8955,6.8974-1.9307,1.7153-4.5611,2.5726-7.8917,2.5726h-8.5503Zm3.0567-19.1388h4.5738c2.4524,0,4.3456-.5719,5.6796-1.7153,1.3334-1.1433,2.0012-2.7592,2.0012-4.8465,0-2.0717-.6632-3.65-1.9885-4.7356-1.3264-1.085-3.256-1.628-5.7917-1.628h-4.4745v12.9254Zm0,16.2305h4.8725c2.75,0,4.8049-.5384,6.1637-1.6153,1.3582-1.0769,2.0382-2.7095,2.0382-4.8968,0-2.1705-.6586-3.865-1.9758-5.0828-1.3178-1.2178-3.1526-1.8273-5.5057-1.8273h-5.5929v13.4222Z"/><path class="cls-4" d="m401.8766,363.6943c-.9116,1.0439-1.9388,1.8308-3.0821,2.3611-1.1433.5298-2.3866.7955-3.728.7955-2.5853,0-4.7847-.9076-6.5999-2.7222-1.814-1.814-2.7211-4.014-2.7211-6.5987,0-2.5685.9105-4.7639,2.7338-6.5872,1.8227-1.8221,4.0181-2.7338,6.5872-2.7338,1.2918,0,2.5264.2525,3.7032.758,1.1762.5055,2.2121,1.2392,3.107,2.2v-3.2064c0-1.7563-.4437-3.0533-1.3299-3.8904-.8862-.8365-2.2577-1.2548-4.1134-1.2548-1.0942,0-2.2785.1577-3.5541.472-1.2768.3149-2.7349.8204-4.3751,1.5165l1.1185-3.3063c1.2427-.4304,2.4605-.7533,3.6541-.9688,1.193-.2155,2.3444-.3235,3.4548-.3235,2.7673,0,4.7928.6465,6.0776,1.9388,1.2837,1.2924,1.9261,3.3306,1.9261,6.1146v17.9706l-2.8586.6216v-3.1567Zm-13.1732-6.1643c0,1.8724.6332,3.434,1.9007,4.6853,1.2681,1.2513,2.8713,1.8764,4.8101,1.8764s3.4998-.6049,4.6853-1.8146c1.1843-1.2092,1.7771-2.7921,1.7771-4.7471,0-1.9388-.5927-3.5172-1.7771-4.735-1.1855-1.2178-2.7303-1.8273-4.6356-1.8273-1.9723,0-3.5917.6216-4.8598,1.8643-1.2675,1.2427-1.9007,2.8089-1.9007,4.698Z"/><path class="cls-4" d="m409.8053,366.5771v-35.9412l2.8586-.3478v14.5655c1.0769-1.5575,2.3028-2.7216,3.6789-3.4923,1.375-.7707,2.9163-1.156,4.6229-1.156,2.8002,0,4.9753.8539,6.5248,2.5605,1.5494,1.7066,2.3236,4.1174,2.3236,7.2331v16.2305l-2.7835.3478v-15.1617c0-2.9331-.5679-5.1331-1.7031-6.5993-1.1346-1.4663-2.8297-2.2-5.0828-2.2-2.0382,0-3.8112.7585-5.3185,2.2745-1.5084,1.5165-2.2624,3.3519-2.2624,5.5057v15.833l-2.8586.3478Z"/><polygon class="cls-4" points="435.2828 366.6268 435.2828 340.8766 438.191 340.5288 438.191 366.2293 435.2828 366.6268"/><path class="cls-4" d="m458.3737,363.6943c-.9116,1.0439-1.9388,1.8308-3.0821,2.3611-1.1433.5298-2.386.7955-3.7286.7955-2.5847,0-4.7847-.9076-6.5987-2.7222-1.8146-1.814-2.7222-4.014-2.7222-6.5987,0-2.5685.9116-4.7639,2.7344-6.5872,1.8227-1.8221,4.0181-2.7338,6.5866-2.7338,1.2929,0,2.527.2525,3.7038.758,1.1762.5055,2.2121,1.2392,3.107,2.2v-3.2064c0-1.7563-.4437-3.0533-1.3299-3.8904-.8868-.8365-2.2583-1.2548-4.114-1.2548-1.093,0-2.2785.1577-3.5541.472-1.2756.3149-2.7338.8204-4.3745,1.5165l1.1185-3.3063c1.2433-.4304,2.4611-.7533,3.6535-.9688,1.1936-.2155,2.345-.3235,3.4554-.3235,2.7667,0,4.7928.6465,6.0771,1.9388,1.2837,1.2924,1.9261,3.3306,1.9261,6.1146v17.9706l-2.858.6216v-3.1567Zm-13.1738-6.1643c0,1.8724.6343,3.434,1.9019,4.6853,1.2675,1.2513,2.8707,1.8764,4.809,1.8764s3.501-.6049,4.6853-1.8146c1.1849-1.2092,1.7776-2.7921,1.7776-4.7471,0-1.9388-.5927-3.5172-1.7776-4.735-1.1843-1.2178-2.7297-1.8273-4.6351-1.8273-1.9723,0-3.5917.6216-4.8592,1.8643s-1.9019,2.8089-1.9019,4.698Z"/><polygon class="cls-4" points="129.9846 366.2293 129.9846 331.3569 148.6508 331.3569 149.3718 334.2652 133.0419 334.2652 133.0419 346.9912 146.8864 346.9912 146.8864 349.8492 133.0419 349.8492 133.0419 363.2714 150.0928 363.2714 149.4215 366.2293 129.9846 366.2293"/><polygon class="cls-4" points="131.9076 325.4618 142.0383 324.1956 144.1046 326.776 133.1505 327.014 131.9076 325.4618"/><path class="cls-3" d="m280.4604,13.5263c12.9185,5.8629,27.4594,13.5674,43.7979,23.0005,54.9842,31.7451,81.5022,55.6496,80.2732,79.6337,1.229,23.984-25.289,47.8885-80.2732,79.6336-42.3426,24.4402-79.5712,41.6885-103.1458,35.0897-18.588-5.2023-28.0856-25.043-25.1637-43.3972,3.8223-24.0131,24.4774-48.0841,24.4774-71.3261s-20.655-47.3131-24.4774-71.3262c-2.9219-18.3542,6.5757-38.195,25.1637-43.3972,14.2033-3.9753,33.5328.3744,59.3479,12.0893"/><path class="cls-2" d="m280.4604,218.7946c12.9185-5.8628,27.4588-13.5678,43.7973-23.0004,19.6586-11.3497,35.6759-21.6969,48.0894-31.4041-90.5428,36.5886-125.3696-74.31-176.3984,23.0971-2.9219,18.3537,6.5757,38.1944,25.1637,43.3967,14.2033,3.9753,33.5328-.3743,59.3479-12.0893"/><path class="cls-2" d="m280.4604,13.5263c12.9185,5.8629,27.4588,13.568,43.7973,23.0005,19.6586,11.3498,35.6759,21.697,48.0894,31.404-90.5428-36.5884-125.3696,74.31-176.3984-23.097-2.9219-18.3537,6.5757-38.1945,25.1637-43.3968,14.2033-3.9753,33.5328.3744,59.3479,12.0893"/><polygon class="cls-1" points="241.6713 109.6583 251.864 104.2632 251.864 140.2295 259.4112 139.2155 259.4112 91.6354 238.749 103.5218 241.6713 109.6583"/><path class="cls-1" d="m281.6963,93.8841c-4.8682,0-8.8569,2.2503-11.856,6.6891-2.824,4.1839-4.2554,9.7484-4.2554,16.5391s1.4367,12.3579,4.2708,16.5531c3.0064,4.4488,6.9905,6.7045,11.8406,6.7045,4.8715,0,8.8649-2.256,11.868-6.7038,2.8354-4.1939,4.2734-9.7634,4.2734-16.5538s-1.4327-12.3525-4.2581-16.5394c-2.9957-4.4385-6.9945-6.6888-11.8834-6.6888Zm5.8425,35.3017c-1.5644,2.6409-3.4755,3.9246-5.8425,3.9246-2.417,0-4.2728-1.2373-5.8398-3.8945-1.7314-2.9326-2.6088-7.0049-2.6088-12.1036,0-5.096.8774-9.1633,2.6075-12.0886,1.5664-2.6469,3.4221-3.8798,5.8411-3.8798,2.3676,0,4.2794,1.2797,5.8438,3.9119,1.7481,2.9433,2.6342,6.9995,2.6342,12.0565s-.8868,9.1209-2.6356,12.0735Z"/><polygon class="cls-1" points="300.1268 102.2722 320.6165 102.2722 306.0107 140.6655 314.9204 139.2602 331.3432 94.7815 302.1115 94.7815 300.1268 102.2722"/><path class="cls-1" d="m370.3858,113.7433c-2.9042-2.9844-6.5181-4.4976-10.7414-4.4976-1.1153,0-2.2166.1049-3.2771.3124-.0942.0184-.1878.0381-.282.0585v-7.4035h14.2864l2.5206-7.4316h-24.3569v26.2299l3.1494-1.9894c1.3078-.826,2.5707-1.432,3.7529-1.8013,1.1554-.3605,2.3562-.5433,3.5698-.5433,2.3536,0,4.248.7391,5.7917,2.2587,1.535,1.5119,2.2814,3.3756,2.2814,5.6981,0,2.3382-.7805,4.2784-2.3863,5.9313-1.5884,1.6345-3.4488,2.4291-5.6868,2.4291-1.4915,0-2.9356-.3983-4.4144-1.2172-1.5082-.8363-2.7291-1.9469-3.7335-3.3957l-1.2449-1.7956-6.0458,4.7739,1.2209,1.6045c1.8325,2.408,3.9629,4.2604,6.3345,5.5063,2.4017,1.26,5.0539,1.8988,7.8833,1.8988,4.3255,0,8.0697-1.5503,11.1276-4.6082,3.0579-3.0579,4.6082-6.8017,4.6082-11.1273,0-4.2577-1.4661-7.922-4.3576-10.8911Z"/><rect class="cls-5" x="326.8671" y="126.5766" width="11.1156" height="11.1156"/></svg>