<?xml version="1.0" encoding="utf-8"?>
<!-- Generator: Adobe Illustrator 24.0.1, SVG Export Plug-In . SVG Version: 6.00 Build 0)  -->
<svg version="1.1" id="Camada_1" xmlns="http://www.w3.org/2000/svg" xmlns:xlink="http://www.w3.org/1999/xlink" x="0px" y="0px"
	 viewBox="0 0 22 22" style="enable-background:new 0 0 22 22;" xml:space="preserve">
<style type="text/css">
	.st0{fill:#FFFFFF;}
</style>
<path class="st0" d="M21.75,20.55l-7.68-7.68c1.13-1.4,1.75-3.13,1.75-4.96c0-2.11-0.82-4.1-2.32-5.6c-3.09-3.09-8.11-3.09-11.19,0
	c-3.09,3.09-3.09,8.11,0,11.19c1.49,1.49,3.48,2.32,5.6,2.32c1.83,0,3.56-0.62,4.96-1.75l7.68,7.68c0.17,0.17,0.38,0.25,0.6,0.25
	c0.22,0,0.44-0.08,0.6-0.25C22.08,21.42,22.08,20.88,21.75,20.55z M3.52,12.31c-2.42-2.42-2.42-6.36,0-8.79
	C4.73,2.31,6.32,1.7,7.91,1.7c1.59,0,3.18,0.61,4.39,1.82c1.17,1.17,1.82,2.73,1.82,4.39c0,1.55-0.57,3-1.6,4.15
	c-0.1,0.04-0.2,0.1-0.28,0.19c-0.08,0.08-0.15,0.18-0.19,0.28c-1.14,1.03-2.6,1.6-4.14,1.6C6.25,14.13,4.69,13.48,3.52,12.31z"/>
</svg>
