<?xml version="1.0" encoding="utf-8"?>
<!-- Generator: Adobe Illustrator 24.0.1, SVG Export Plug-In . SVG Version: 6.00 Build 0)  -->
<svg version="1.1" id="Modo_de_isolamento" xmlns="http://www.w3.org/2000/svg" xmlns:xlink="http://www.w3.org/1999/xlink" x="0px"
	 y="0px" viewBox="0 0 23 23" style="enable-background:new 0 0 23 23;" xml:space="preserve">
<style type="text/css">
	.st0{fill:#D6D6D6;}
</style>
<g>
	<path class="st0" d="M3.24,8.41h1.54V6.03h0.08h0.98h12.93h1.09v1.29v1.09h0.58c1.26,0,2.3,1.04,2.3,2.3v9.52
		c0,1.24-1.04,2.27-2.3,2.27H2.56c-1.26,0-2.3-1.04-2.3-2.27V10.7c0-1.19,0.88-2.15,2.02-2.3v-2.1h0.18V4.19h0.13V2.14h0.08V0.5
		h0.23v1.64h0.05v2.05h0.13v2.12h0.18V8.41z M18.77,7.32L18.77,7.32H5.84v1.09h12.93V7.32z M17.84,11.01L17.84,11.01
		c-0.88,0-1.57,0.71-1.57,1.59c0,0.86,0.68,1.57,1.57,1.57c0.88,0,1.59-0.71,1.59-1.57C19.43,11.71,18.72,11.01,17.84,11.01
		L17.84,11.01z M16.7,10.5L16.7,10.5c-0.03,0.03-0.05,0.08-0.03,0.1l0.23,0.4c0.03,0.03,0.08,0.05,0.1,0.03
		c0.03-0.03,0.05-0.08,0.03-0.08l-0.23-0.4C16.8,10.5,16.73,10.5,16.7,10.5L16.7,10.5z M15.82,11.36L15.82,11.36
		c0,0.05,0,0.08,0.03,0.1l0.4,0.23c0.03,0.02,0.08,0,0.08-0.02c0.03-0.03,0.03-0.08,0-0.1l-0.4-0.23
		C15.89,11.31,15.84,11.34,15.82,11.36L15.82,11.36z M15.49,12.55L15.49,12.55c0,0.03,0.03,0.05,0.05,0.05h0.48
		c0.03,0,0.05-0.02,0.05-0.05c0-0.05-0.03-0.08-0.05-0.08h-0.48C15.52,12.47,15.49,12.5,15.49,12.55L15.49,12.55z M15.77,13.73
		L15.77,13.73c0.03,0.03,0.05,0.03,0.1,0.03l0.4-0.25c0.03,0,0.03-0.05,0-0.08c0-0.05-0.05-0.08-0.1-0.03l-0.38,0.23
		C15.77,13.66,15.74,13.68,15.77,13.73L15.77,13.73z M16.63,14.59L16.63,14.59c0,0.03,0.05,0.03,0.1-0.02l0.23-0.38
		c0-0.05,0-0.08-0.05-0.1c-0.03-0.03-0.05-0.03-0.08,0.02l-0.25,0.38C16.58,14.54,16.58,14.57,16.63,14.59L16.63,14.59z
		 M17.79,14.95L17.79,14.95c0.05,0,0.05-0.02,0.05-0.07v-0.46c0-0.05,0-0.08-0.05-0.08c-0.03,0-0.08,0.02-0.08,0.08v0.46
		C17.71,14.92,17.76,14.95,17.79,14.95L17.79,14.95z M18.98,14.64L18.98,14.64c0.03,0,0.05-0.05,0.03-0.08l-0.23-0.4
		c-0.02-0.05-0.08-0.05-0.1-0.03c-0.03,0.03-0.05,0.05-0.03,0.1l0.25,0.4C18.9,14.67,18.95,14.67,18.98,14.64L18.98,14.64z
		 M19.86,13.81L19.86,13.81c0.03-0.02,0.03-0.08-0.03-0.08l-0.4-0.25c-0.02-0.03-0.08,0-0.08,0.02c-0.03,0.03-0.03,0.1,0,0.1
		l0.4,0.23C19.81,13.86,19.84,13.84,19.86,13.81L19.86,13.81z M20.19,12.62L20.19,12.62c0-0.03,0-0.05-0.05-0.05h-0.48
		c-0.03,0-0.05,0.02-0.05,0.05c0,0.05,0.03,0.08,0.05,0.08h0.48C20.19,12.7,20.19,12.67,20.19,12.62L20.19,12.62z M19.91,11.46
		L19.91,11.46c-0.03-0.05-0.05-0.05-0.1-0.05l-0.38,0.25c-0.05,0.02-0.05,0.05-0.02,0.08c0.02,0.05,0.05,0.05,0.1,0.05l0.38-0.23
		C19.94,11.54,19.94,11.49,19.91,11.46L19.91,11.46z M19.05,10.58L19.05,10.58c0-0.03-0.05,0-0.08,0l-0.23,0.4
		c-0.03,0.05,0,0.1,0.02,0.1c0.03,0.02,0.05,0.02,0.08-0.03l0.25-0.4C19.13,10.63,19.1,10.58,19.05,10.58L19.05,10.58z M17.89,10.22
		L17.89,10.22c-0.05,0-0.05,0.05-0.05,0.08v0.45c0,0.05,0,0.08,0.05,0.08c0.02,0,0.08-0.03,0.08-0.08V10.3
		C17.97,10.27,17.92,10.22,17.89,10.22L17.89,10.22z M17.84,16.94L17.84,16.94c-0.88,0-1.57,0.71-1.57,1.57
		c0,0.88,0.68,1.59,1.57,1.59c0.88,0,1.59-0.71,1.59-1.59C19.43,17.65,18.72,16.94,17.84,16.94L17.84,16.94z M16.7,16.44L16.7,16.44
		c-0.03,0.02-0.05,0.08-0.03,0.1l0.23,0.4c0.03,0.03,0.08,0.05,0.1,0.03c0.03-0.03,0.05-0.05,0.03-0.1l-0.23-0.4
		C16.8,16.44,16.73,16.41,16.7,16.44L16.7,16.44z M15.82,17.3L15.82,17.3c0,0.02,0,0.08,0.03,0.08l0.4,0.23c0.03,0.03,0.08,0,0.08,0
		c0.03-0.05,0.03-0.08,0-0.1l-0.4-0.23C15.89,17.25,15.84,17.25,15.82,17.3L15.82,17.3z M15.49,18.46L15.49,18.46
		c0,0.05,0.03,0.08,0.05,0.08h0.48c0.03,0,0.05-0.03,0.05-0.08c0-0.02-0.03-0.05-0.05-0.05h-0.48
		C15.52,18.41,15.49,18.43,15.49,18.46L15.49,18.46z M15.77,19.65L15.77,19.65c0.03,0.05,0.05,0.05,0.1,0.02l0.4-0.23
		c0.03-0.03,0.03-0.05,0-0.1c0-0.02-0.05-0.02-0.1,0l-0.38,0.23C15.77,19.57,15.74,19.62,15.77,19.65L15.77,19.65z M16.63,20.55
		L16.63,20.55c0,0,0.05,0,0.1-0.05l0.23-0.4c0-0.03,0-0.08-0.05-0.1c-0.03,0-0.05,0-0.08,0.02l-0.25,0.43
		C16.58,20.45,16.58,20.53,16.63,20.55L16.63,20.55z M17.79,20.88L17.79,20.88c0.05,0,0.05-0.03,0.05-0.08v-0.45
		c0-0.05,0-0.08-0.05-0.08c-0.03,0-0.08,0.03-0.08,0.08v0.45C17.71,20.86,17.76,20.88,17.79,20.88L17.79,20.88z M18.98,20.58
		L18.98,20.58c0.03,0,0.05-0.05,0.03-0.1l-0.23-0.38c-0.02-0.03-0.08-0.05-0.1-0.03s-0.05,0.05-0.03,0.08l0.25,0.4
		C18.9,20.6,18.95,20.6,18.98,20.58L18.98,20.58z M19.86,19.75L19.86,19.75c0.03-0.03,0.03-0.08-0.03-0.1l-0.4-0.23
		c-0.02-0.02-0.08-0.02-0.08,0.03c-0.03,0.05-0.03,0.08,0,0.1l0.4,0.23C19.81,19.8,19.84,19.77,19.86,19.75L19.86,19.75z
		 M20.19,18.58L20.19,18.58c0-0.05,0-0.08-0.05-0.08h-0.48c-0.03,0-0.05,0.03-0.05,0.08c0,0.03,0.03,0.05,0.05,0.05h0.48
		C20.19,18.63,20.19,18.61,20.19,18.58L20.19,18.58z M19.91,17.37L19.91,17.37c-0.03-0.02-0.05-0.02-0.1,0l-0.38,0.23
		c-0.05,0-0.05,0.05-0.02,0.08c0.02,0.02,0.05,0.05,0.1,0.02l0.38-0.23C19.94,17.45,19.94,17.42,19.91,17.37L19.91,17.37z
		 M19.05,16.49L19.05,16.49c0-0.03-0.05,0-0.08,0.03l-0.23,0.4c-0.03,0.05,0,0.08,0.02,0.1c0.03,0.03,0.05,0,0.08-0.03l0.25-0.4
		C19.13,16.54,19.1,16.51,19.05,16.49L19.05,16.49z M17.89,16.16L17.89,16.16c-0.05,0-0.05,0.02-0.05,0.08v0.46
		c0,0.02,0,0.07,0.05,0.07c0.02,0,0.08-0.05,0.08-0.07v-0.46C17.97,16.18,17.92,16.16,17.89,16.16L17.89,16.16z M4.23,11.21
		L4.23,11.21c-0.28,0-0.53,0.25-0.53,0.56V13h2.05v-1.79H4.23z M3.69,13.66L3.69,13.66v1.36h2.05v-1.36H3.69z M3.69,15.65
		L3.69,15.65v1.39h2.05v-1.39H3.69z M3.69,17.68L3.69,17.68v1.26c0,0.3,0.25,0.53,0.53,0.53h1.52v-1.79H3.69z M6.37,13L6.37,13h1.39
		v-1.79H6.37V13z M6.37,13.66L6.37,13.66v1.36h1.39v-1.36H6.37z M6.37,15.65L6.37,15.65v1.39h1.39v-1.39H6.37z M6.37,17.68
		L6.37,17.68v1.79h1.39v-1.79H6.37z M8.42,13L8.42,13h1.34v-1.79H8.42V13z M8.42,13.66L8.42,13.66v1.36h1.34v-1.36H8.42z
		 M8.42,15.65L8.42,15.65v1.39h1.34v-1.39H8.42z M8.42,17.68L8.42,17.68v1.79h1.34v-1.79H8.42z M10.41,13L10.41,13h2.05v-1.24
		c0-0.3-0.25-0.56-0.53-0.56h-1.52V13z M10.41,13.66L10.41,13.66v1.36h2.05v-1.36H10.41z M10.41,15.65L10.41,15.65v1.39h2.05v-1.39
		H10.41z M10.41,17.68L10.41,17.68v1.79h1.52c0.28,0,0.53-0.23,0.53-0.53v-1.26H10.41z"/>
</g>
</svg>
