<?xml version="1.0" encoding="utf-8"?>
<!-- Generator: Adobe Illustrator 24.0.1, SVG Export Plug-In . SVG Version: 6.00 Build 0)  -->
<svg version="1.1" id="Camada_1" xmlns="http://www.w3.org/2000/svg" xmlns:xlink="http://www.w3.org/1999/xlink" x="0px" y="0px"
	 viewBox="0 0 219 219" style="enable-background:new 0 0 219 219;" xml:space="preserve">
<style type="text/css">
	.st0{fill:#BE1B2E;}
	.st1{fill:#FFFFFF;}
	.st2{fill-rule:evenodd;clip-rule:evenodd;fill:#FFFFFF;}
</style>
<path class="st0" d="M208.9,0H10.1C4.5,0,0,4.5,0,10.1V209c0,5.5,4.5,10,10.1,10H209c5.6,0,10.1-4.5,10.1-10.1V10.1
	C219,4.5,214.5,0,208.9,0z M215,208.9c0,3.3-2.7,6-6,6h-142l-13-20.2c-1.6-2.5-4.1-4.3-7-5L4,179.7V10.1c0-3.3,2.7-6,6-6h114.3
	l19.2,29.9c2.3,3.5,5.8,6,9.9,7L215,55.3L215,208.9L215,208.9z"/>
<g>
	<path class="st1" d="M169.1,26.4c-2.1,2.1-5.4,2.1-7.5,0c-2.1-2.1-2.1-5.4,0-7.5c2.1-2.1,5.4-2.1,7.5,0l-1.5,1.5
		c-3-3-7.6,1.6-4.6,4.6c1.3,1.3,3.3,1.3,4.6,0L169.1,26.4z"/>
	<path class="st1" d="M170.8,21.6h6.7c-0.4-1.5-1.7-2.5-3.3-2.5C172.6,19.1,171.2,20.2,170.8,21.6z M177.4,23.7h-6.5
		c0.5,1.3,1.8,2.3,3.3,2.3c1.1,0,2.2-0.6,2.8-1.4l2.4,0c-0.8,2-2.8,3.5-5.1,3.5c-3.1,0-5.5-2.5-5.5-5.5s2.5-5.5,5.5-5.5
		c3.1,0,5.5,2.5,5.5,5.5c0,0.4,0,0.8-0.1,1.2H177.4z"/>
	<polygon class="st1" points="198.8,17.4 194.7,28.1 192,28.1 187.9,17.4 190.1,17.4 193.3,25.7 196.6,17.4 	"/>
	<path class="st1" d="M180.5,28.1v-6c0-2.6,2.1-4.6,4.6-4.6h2.1v2.1h-2.1c-1.4,0-2.6,1.1-2.6,2.6v6H180.5z"/>
	<path class="st2" d="M188.7,24c0-0.3-0.2-0.7-0.7-1c0,0,0,0,0,0c-0.1-0.1-0.2-0.1-0.2-0.2c0,0,0,0-0.1,0c-0.1-0.1-0.2-0.1-0.3-0.2
		c0,0-0.1,0-0.1-0.1c-0.1-0.1-0.2-0.1-0.4-0.2c-0.4-0.2-0.7-0.4-0.9-0.5c-0.6-0.3-1-0.3-1.3-0.3c-0.4,0.1-0.6,0.5-0.5,0.9
		c0.1,0.5,0.5,1,0.5,1.5c0,0.5-0.4,1-0.5,1.5c-0.1,0.4,0.1,0.8,0.5,0.9c0.1,0,0.1,0,0.2,0c0,0,0.1,0,0.1,0c0.1,0,0.1,0,0.2,0
		c0,0,0.1,0,0.1,0c0.1,0,0.1,0,0.2-0.1c0,0,0.1,0,0.1,0c0.1,0,0.2-0.1,0.4-0.1c0,0,0,0,0,0c0,0,0,0,0,0c0.1-0.1,0.3-0.1,0.4-0.2
		c0,0,0.1,0,0.1,0c0.1-0.1,0.3-0.2,0.4-0.2c0.1-0.1,0.3-0.1,0.4-0.2c0,0,0.1,0,0.1-0.1c0.1-0.1,0.2-0.1,0.3-0.2c0,0,0,0,0.1,0
		c0.1-0.1,0.2-0.1,0.2-0.2c0,0,0,0,0,0C188.5,24.7,188.7,24.4,188.7,24z"/>
	<path class="st1" d="M203.3,17.3c-2.9,0-5.3,2.4-5.3,5.3v5.3h2.1v-1.1c0.9,0.7,2,1.1,3.2,1.1c2.9,0,5.3-2.4,5.3-5.3
		C208.7,19.6,206.3,17.3,203.3,17.3z M206.2,25.5c-0.2,0.2-0.4,0.2-0.6,0s-0.2-0.4,0-0.6s0.4-0.2,0.6,0
		C206.4,25.1,206.4,25.4,206.2,25.5z M206.4,24.4c-0.2,0.2-0.4,0.2-0.6,0c-0.2-0.2-0.2-0.4,0-0.6c0.2-0.2,0.4-0.2,0.6,0
		C206.6,24,206.6,24.3,206.4,24.4z M206.9,23.9c-0.2-0.2-0.2-0.4,0-0.6c0.2-0.2,0.4-0.2,0.6,0c0.2,0.2,0.2,0.4,0,0.6
		C207.3,24,207,24,206.9,23.9z"/>
	<path class="st1" d="M154,17.2c-2.9,0-5.3,2.4-5.3,5.3c0,2.9,2.4,5.3,5.3,5.3c1.2,0,2.3-0.4,3.2-1.1v1.1h2.1v-5.3
		C159.3,19.6,156.9,17.2,154,17.2z M150.4,23.9c-0.2,0.1-0.4,0-0.5-0.2c-0.1-0.2,0-0.4,0.2-0.5c0.2-0.1,0.4,0,0.5,0.2
		C150.6,23.5,150.6,23.8,150.4,23.9z M150.8,24.3c-0.1-0.2,0-0.4,0.2-0.5c0.2-0.1,0.4,0,0.5,0.2c0.1,0.2,0,0.4-0.2,0.5
		C151.2,24.5,150.9,24.5,150.8,24.3z M151.6,25.6c-0.2,0.1-0.4,0-0.5-0.2c-0.1-0.2,0-0.4,0.2-0.5c0.2-0.1,0.4,0,0.5,0.2
		C151.8,25.3,151.8,25.5,151.6,25.6z"/>
</g>
</svg>
