<?xml version="1.0" encoding="utf-8"?>
<!-- Generator: Adobe Illustrator 24.0.1, SVG Export Plug-In . SVG Version: 6.00 Build 0)  -->
<svg version="1.1" id="Camada_1" xmlns="http://www.w3.org/2000/svg" xmlns:xlink="http://www.w3.org/1999/xlink" x="0px" y="0px"
	 viewBox="0 0 22 22" style="enable-background:new 0 0 22 22;" xml:space="preserve">
<style type="text/css">
	.st0{fill:#FFFFFF;}
</style>
<g>
	<g>
		<path class="st0" d="M16.43,4.41c-0.66,0-1.2,0.54-1.2,1.2c0,0.66,0.54,1.2,1.2,1.2c0.66,0,1.2-0.54,1.2-1.2
			C17.63,4.95,17.09,4.41,16.43,4.41z"/>
		<path class="st0" d="M11.08,5.95C8.3,5.95,6.03,8.22,6.03,11c0,2.78,2.27,5.05,5.05,5.05c2.78,0,5.05-2.27,5.05-5.05
			C16.13,8.22,13.87,5.95,11.08,5.95z M11.08,14.23c-1.78,0-3.23-1.45-3.23-3.23s1.45-3.23,3.23-3.23c1.78,0,3.23,1.45,3.23,3.23
			S12.87,14.23,11.08,14.23z"/>
		<path class="st0" d="M15.09,21.25H6.91c-3.4,0-6.16-2.76-6.16-6.16V6.91c0-3.4,2.76-6.16,6.16-6.16h8.19
			c3.4,0,6.16,2.76,6.16,6.16v8.19C21.25,18.49,18.49,21.25,15.09,21.25z M6.91,2.68c-2.33,0-4.23,1.9-4.23,4.23v8.19
			c0,2.33,1.9,4.23,4.23,4.23h8.19c2.33,0,4.23-1.9,4.23-4.23V6.91c0-2.33-1.9-4.23-4.23-4.23H6.91z"/>
	</g>
</g>
</svg>
