<?xml version="1.0" encoding="utf-8"?>
<!-- Generator: Adobe Illustrator 24.0.1, SVG Export Plug-In . SVG Version: 6.00 Build 0)  -->
<svg version="1.1" id="Camada_1" xmlns="http://www.w3.org/2000/svg" xmlns:xlink="http://www.w3.org/1999/xlink" x="0px" y="0px"
	 viewBox="0 0 22 22" style="enable-background:new 0 0 22 22;" xml:space="preserve">
<style type="text/css">
	.st0{fill:#FFFFFF;}
</style>
<path class="st0" d="M21.41,4.43c-0.67,0.3-1.4,0.48-2.12,0.61c0.34-0.06,0.84-0.68,1.04-0.93c0.31-0.38,0.56-0.82,0.7-1.29
	c0.02-0.04,0.03-0.08,0-0.11c-0.05-0.02-0.08-0.01-0.11,0.01c-0.8,0.43-1.63,0.74-2.52,0.96c-0.07,0.02-0.13,0-0.17-0.05
	c-0.07-0.08-0.14-0.16-0.22-0.23c-0.37-0.32-0.77-0.56-1.22-0.75c-0.59-0.24-1.24-0.34-1.87-0.3c-0.62,0.04-1.23,0.21-1.77,0.5
	c-0.55,0.29-1.04,0.69-1.43,1.17c-0.4,0.5-0.7,1.09-0.85,1.71c-0.15,0.6-0.14,1.2-0.05,1.81c0.01,0.1,0,0.11-0.09,0.1
	C7.27,7.14,4.4,5.91,2.07,3.26c-0.1-0.12-0.16-0.12-0.24,0.01C0.82,4.79,1.31,7.24,2.58,8.45c0.17,0.16,0.34,0.32,0.53,0.47
	C3.05,8.93,2.2,8.84,1.45,8.45c-0.1-0.06-0.15-0.03-0.16,0.09c-0.01,0.16,0,0.32,0.03,0.5c0.2,1.55,1.27,2.98,2.73,3.54
	c0.17,0.07,0.37,0.14,0.55,0.17c-0.33,0.07-0.68,0.13-1.64,0.05c-0.12-0.02-0.16,0.04-0.12,0.15c0.72,1.96,2.28,2.55,3.44,2.88
	c0.16,0.03,0.31,0.03,0.47,0.06c-0.01,0.01-0.02,0.01-0.03,0.03C6.34,16.5,5,16.94,4.38,17.16c-1.13,0.4-2.37,0.57-3.57,0.46
	c-0.19-0.03-0.23-0.03-0.28,0c-0.05,0.03-0.01,0.08,0.06,0.13c0.24,0.16,0.49,0.3,0.74,0.44c0.76,0.4,1.56,0.73,2.39,0.95
	c4.29,1.18,9.12,0.31,12.33-2.88c2.53-2.51,3.41-5.97,3.41-9.44c0-0.14,0.16-0.21,0.26-0.28c0.66-0.49,1.19-1.09,1.68-1.75
	C21.5,4.63,21.5,4.5,21.5,4.45c0-0.01,0-0.02,0-0.02C21.5,4.37,21.5,4.39,21.41,4.43z"/>
</svg>
